<?xml version="1.0" encoding="UTF-8"?>
<svg version="1.1" xmlns="http://www.w3.org/2000/svg" width="150" height="150">
<path d="M0,0 L116,0 L116,1 L119,1 L119,2 L121,2 L121,3 L123,3 L123,4 L124,4 L124,5 L125,5 L125,6 L126,6 L126,7 L127,7 L127,8 L128,8 L128,9 L129,9 L129,10 L130,10 L130,12 L131,12 L131,14 L132,14 L132,17 L133,17 L133,133 L132,133 L132,136 L131,136 L131,138 L130,138 L130,140 L129,140 L129,141 L128,141 L128,142 L127,142 L127,143 L126,143 L126,144 L125,144 L125,145 L124,145 L124,146 L122,146 L122,147 L121,147 L121,148 L119,148 L119,149 L115,149 L115,150 L0,150 L0,149 L-3,149 L-3,148 L-5,148 L-5,147 L-6,147 L-6,146 L-8,146 L-8,145 L-9,145 L-9,144 L-10,144 L-10,143 L-11,143 L-11,142 L-12,142 L-12,141 L-13,141 L-13,140 L-14,140 L-14,138 L-15,138 L-15,136 L-16,136 L-16,133 L-17,133 L-17,17 L-16,17 L-16,14 L-15,14 L-15,12 L-14,12 L-14,10 L-13,10 L-13,9 L-12,9 L-12,7 L-11,7 L-11,6 L-10,6 L-10,5 L-8,5 L-8,4 L-7,4 L-7,3 L-5,3 L-5,2 L-3,2 L-3,1 L0,1 Z M57,39 L57,40 L53,40 L53,41 L49,41 L49,42 L47,42 L47,43 L45,43 L45,44 L44,44 L44,45 L42,45 L42,46 L41,46 L41,47 L39,47 L39,48 L38,48 L38,49 L37,49 L37,50 L36,50 L36,51 L35,51 L35,52 L34,52 L34,54 L33,54 L33,55 L32,55 L32,57 L21,57 L21,58 L17,58 L17,59 L15,59 L15,60 L13,60 L13,61 L11,61 L11,62 L10,62 L10,63 L9,63 L9,64 L8,64 L8,65 L7,65 L7,66 L6,66 L6,67 L5,67 L5,68 L4,68 L4,70 L3,70 L3,71 L2,71 L2,73 L1,73 L1,76 L0,76 L0,91 L1,91 L1,94 L2,94 L2,96 L3,96 L3,98 L4,98 L4,100 L5,100 L5,101 L6,101 L6,102 L7,102 L7,103 L8,103 L8,104 L9,104 L9,105 L11,105 L11,106 L12,106 L12,107 L14,107 L14,108 L16,108 L16,109 L19,109 L19,110 L104,110 L104,109 L107,109 L107,108 L109,108 L109,107 L110,107 L110,106 L111,106 L111,105 L112,105 L112,104 L113,104 L113,103 L114,103 L114,101 L115,101 L115,99 L116,99 L116,95 L117,95 L117,91 L116,91 L116,87 L115,87 L115,84 L114,84 L114,82 L113,82 L113,81 L112,81 L112,82 L110,82 L110,83 L108,83 L108,84 L106,84 L106,85 L103,85 L103,86 L97,86 L97,87 L94,87 L94,86 L88,86 L88,85 L85,85 L85,84 L83,84 L83,83 L81,83 L81,82 L80,82 L80,81 L79,81 L79,80 L77,80 L77,79 L76,79 L76,78 L75,78 L75,76 L74,76 L74,75 L73,75 L73,74 L72,74 L72,72 L71,72 L71,70 L70,70 L70,68 L69,68 L69,64 L68,64 L68,54 L69,54 L69,49 L70,49 L70,47 L71,47 L71,45 L72,45 L72,43 L73,43 L73,40 L68,40 L68,39 Z " fill="#2E8281" transform="translate(17,0)"/>
<path d="M0,0 L111,0 L111,1 L117,1 L117,3 L116,3 L116,4 L121,4 L121,6 L123,6 L123,7 L124,7 L124,10 L121,10 L121,9 L119,9 L119,8 L115,8 L115,10 L112,10 L112,11 L111,11 L111,13 L114,13 L114,12 L119,12 L119,13 L118,13 L118,14 L115,14 L115,16 L114,16 L114,17 L112,17 L112,20 L111,20 L111,22 L101,22 L101,23 L103,23 L103,24 L111,24 L111,28 L110,28 L110,29 L111,29 L111,31 L110,31 L110,30 L109,30 L109,29 L107,29 L107,28 L91,28 L91,29 L85,29 L85,30 L84,30 L84,31 L81,31 L81,33 L78,33 L78,34 L75,34 L75,35 L74,35 L74,36 L73,36 L73,38 L56,38 L56,39 L52,39 L52,40 L48,40 L48,41 L46,41 L46,42 L44,42 L44,43 L43,43 L43,44 L41,44 L41,45 L40,45 L40,46 L38,46 L38,47 L37,47 L37,48 L36,48 L36,49 L35,49 L35,50 L34,50 L34,51 L33,51 L33,53 L32,53 L32,54 L31,54 L31,56 L20,56 L20,57 L16,57 L16,58 L14,58 L14,59 L12,59 L12,60 L10,60 L10,61 L9,61 L9,62 L8,62 L8,63 L7,63 L7,64 L6,64 L6,65 L5,65 L5,66 L4,66 L4,67 L3,67 L3,69 L2,69 L2,70 L1,70 L1,72 L0,72 L0,75 L-1,75 L-1,90 L0,90 L0,93 L1,93 L1,95 L2,95 L2,97 L0,97 L0,96 L-1,96 L-1,93 L-2,93 L-2,91 L-4,91 L-4,90 L-5,90 L-5,85 L-6,85 L-6,88 L-7,88 L-7,90 L-9,90 L-9,89 L-8,89 L-8,87 L-10,87 L-10,85 L-11,85 L-11,86 L-13,86 L-13,88 L-16,88 L-16,90 L-17,90 L-17,17 L-16,17 L-16,13 L-14,13 L-14,12 L-12,12 L-12,14 L-11,14 L-11,13 L-10,13 L-10,11 L-8,11 L-8,10 L-7,10 L-7,11 L-6,11 L-6,10 L-5,10 L-5,9 L-4,9 L-4,7 L-3,7 L-3,6 L-2,6 L-2,3 L-1,3 L-1,2 L-2,2 L-2,1 L0,1 Z " fill="#2B807F" transform="translate(18,1)"/>
<path d="M0,0 L10,0 L10,1 L14,1 L14,2 L16,2 L16,3 L18,3 L18,4 L20,4 L20,6 L21,6 L21,7 L23,7 L23,8 L24,8 L24,9 L25,9 L25,11 L26,11 L26,12 L27,12 L27,14 L28,14 L28,16 L29,16 L29,17 L30,17 L30,21 L31,21 L31,33 L30,33 L30,35 L29,35 L29,37 L28,37 L28,39 L27,39 L27,40 L26,40 L26,44 L25,44 L25,45 L23,45 L23,46 L22,46 L22,49 L23,49 L23,52 L22,52 L22,50 L21,50 L21,49 L20,49 L20,50 L18,50 L18,51 L16,51 L16,52 L14,52 L14,53 L11,53 L11,54 L5,54 L5,55 L2,55 L2,54 L-4,54 L-4,53 L-7,53 L-7,52 L-9,52 L-9,51 L-11,51 L-11,50 L-12,50 L-12,49 L-13,49 L-13,48 L-15,48 L-15,47 L-16,47 L-16,46 L-17,46 L-17,44 L-18,44 L-18,43 L-19,43 L-19,42 L-20,42 L-20,40 L-21,40 L-21,38 L-22,38 L-22,36 L-23,36 L-23,32 L-24,32 L-24,22 L-23,22 L-23,17 L-22,17 L-22,15 L-21,15 L-21,13 L-20,13 L-20,11 L-19,11 L-19,8 L-18,8 L-18,9 L-15,9 L-15,8 L-12,8 L-12,6 L-11,6 L-11,5 L-10,5 L-10,3 L-8,3 L-8,2 L-7,2 L-7,1 L0,1 Z " fill="#FDC007" transform="translate(109,32)"/>
<path d="M0,0 L116,0 L116,1 L119,1 L119,2 L121,2 L121,3 L123,3 L123,4 L124,4 L124,5 L125,5 L125,6 L126,6 L126,7 L127,7 L127,8 L128,8 L128,9 L129,9 L129,10 L130,10 L130,12 L131,12 L131,14 L132,14 L132,17 L133,17 L133,133 L132,133 L132,136 L131,136 L131,138 L130,138 L130,140 L129,140 L129,141 L128,141 L128,142 L127,142 L127,141 L126,141 L126,140 L127,140 L127,135 L129,135 L129,134 L130,134 L130,121 L131,121 L131,24 L130,24 L130,17 L127,17 L127,33 L128,33 L128,34 L127,34 L127,35 L125,35 L125,37 L124,37 L124,39 L123,39 L123,42 L124,42 L124,43 L125,43 L125,42 L127,42 L127,43 L128,43 L128,52 L127,52 L127,65 L125,65 L125,68 L124,68 L124,71 L123,71 L123,73 L122,73 L122,77 L121,77 L121,78 L120,78 L120,81 L117,81 L117,91 L116,91 L116,87 L115,87 L115,81 L114,81 L114,78 L115,78 L115,77 L117,77 L117,76 L118,76 L118,72 L119,72 L119,71 L120,71 L120,69 L121,69 L121,67 L122,67 L122,65 L123,65 L123,53 L122,53 L122,49 L121,49 L121,48 L120,48 L120,46 L119,46 L119,44 L118,44 L118,43 L117,43 L117,41 L116,41 L116,40 L115,40 L115,39 L113,39 L113,38 L112,38 L112,36 L110,36 L110,35 L108,35 L108,34 L106,34 L106,33 L102,33 L102,32 L92,32 L92,33 L85,33 L85,34 L84,34 L84,35 L82,35 L82,37 L81,37 L81,38 L80,38 L80,40 L77,40 L77,41 L74,41 L74,40 L68,40 L68,39 L74,39 L74,37 L75,37 L75,36 L76,36 L76,35 L79,35 L79,34 L82,34 L82,32 L85,32 L85,31 L86,31 L86,30 L92,30 L92,29 L108,29 L108,30 L110,30 L110,31 L111,31 L111,32 L112,32 L112,30 L111,30 L111,29 L112,29 L112,25 L104,25 L104,24 L102,24 L102,23 L112,23 L112,21 L113,21 L113,18 L115,18 L115,17 L116,17 L116,15 L119,15 L119,14 L120,14 L120,13 L115,13 L115,14 L112,14 L112,12 L113,12 L113,11 L116,11 L116,9 L120,9 L120,10 L122,10 L122,11 L125,11 L125,8 L124,8 L124,7 L122,7 L122,5 L117,5 L117,4 L118,4 L118,2 L112,2 L112,1 L1,1 L1,2 L-1,2 L-1,3 L0,3 L0,4 L-1,4 L-1,7 L-2,7 L-2,8 L-3,8 L-3,10 L-4,10 L-4,11 L-5,11 L-5,12 L-6,12 L-6,11 L-7,11 L-7,12 L-9,12 L-9,14 L-10,14 L-10,15 L-11,15 L-11,13 L-13,13 L-13,14 L-15,14 L-15,12 L-14,12 L-14,10 L-13,10 L-13,9 L-12,9 L-12,7 L-11,7 L-11,6 L-10,6 L-10,5 L-8,5 L-8,4 L-7,4 L-7,3 L-5,3 L-5,2 L-3,2 L-3,1 L0,1 Z " fill="#2E8281" transform="translate(17,0)"/>
<path d="M0,0 L16,0 L16,1 L18,1 L18,2 L19,2 L19,3 L20,3 L20,4 L22,4 L22,5 L24,5 L24,7 L27,7 L27,9 L30,9 L30,8 L31,8 L31,6 L32,6 L32,4 L34,4 L34,6 L33,6 L33,8 L32,8 L32,10 L31,10 L31,13 L32,13 L32,14 L33,14 L33,13 L35,13 L35,14 L36,14 L36,23 L35,23 L35,36 L33,36 L33,39 L32,39 L32,42 L31,42 L31,44 L30,44 L30,48 L29,48 L29,49 L28,49 L28,52 L25,52 L25,62 L24,62 L24,58 L23,58 L23,52 L22,52 L22,49 L23,49 L23,48 L25,48 L25,47 L26,47 L26,43 L27,43 L27,42 L28,42 L28,40 L29,40 L29,38 L30,38 L30,36 L31,36 L31,24 L30,24 L30,20 L29,20 L29,19 L28,19 L28,17 L27,17 L27,15 L26,15 L26,14 L25,14 L25,12 L24,12 L24,11 L23,11 L23,10 L21,10 L21,9 L20,9 L20,7 L18,7 L18,6 L16,6 L16,5 L14,5 L14,4 L10,4 L10,3 L0,3 L0,4 L-7,4 L-7,5 L-8,5 L-8,6 L-10,6 L-10,8 L-11,8 L-11,9 L-12,9 L-12,11 L-15,11 L-15,12 L-18,12 L-18,11 L-24,11 L-24,10 L-18,10 L-18,8 L-17,8 L-17,7 L-16,7 L-16,6 L-13,6 L-13,5 L-10,5 L-10,3 L-7,3 L-7,2 L-6,2 L-6,1 L0,1 Z " fill="#358076" transform="translate(109,29)"/>
<path d="M0,0 L1,0 L1,1 L0,1 Z M-2,1 L0,1 L0,5 L120,5 L120,6 L119,6 L119,7 L117,7 L117,8 L2,8 L2,7 L-1,7 L-1,5 L-2,5 L-2,4 L-1,4 L-1,2 L-2,2 Z " fill="#458782" transform="translate(15,142)"/>
<path d="M0,0 L1,0 L1,116 L0,116 L0,119 L-1,119 L-1,121 L-2,121 L-2,123 L-3,123 L-3,124 L-4,124 L-4,125 L-5,125 L-5,124 L-6,124 L-6,123 L-5,123 L-5,118 L-3,118 L-3,117 L-2,117 L-2,104 L-1,104 L-1,1 L0,1 Z " fill="#508A85" transform="translate(149,17)"/>
<path d="M0,0 L116,0 L116,1 L119,1 L119,2 L121,2 L121,3 L123,3 L123,4 L124,4 L124,5 L125,5 L125,6 L126,6 L126,7 L127,7 L127,8 L128,8 L128,9 L127,9 L127,10 L126,10 L126,8 L124,8 L124,7 L122,7 L122,5 L117,5 L117,4 L118,4 L118,2 L112,2 L112,1 L1,1 L1,2 L-1,2 L-1,3 L0,3 L0,4 L-1,4 L-1,7 L-2,7 L-2,8 L-3,8 L-3,10 L-4,10 L-4,11 L-5,11 L-5,12 L-6,12 L-6,11 L-7,11 L-7,12 L-9,12 L-9,14 L-10,14 L-10,15 L-11,15 L-11,13 L-13,13 L-13,14 L-15,14 L-15,12 L-14,12 L-14,10 L-13,10 L-13,9 L-12,9 L-12,7 L-11,7 L-11,6 L-10,6 L-10,5 L-8,5 L-8,4 L-7,4 L-7,3 L-5,3 L-5,2 L-3,2 L-3,1 L0,1 Z " fill="#4F827A" transform="translate(17,0)"/>
<path d="M0,0 L6,0 L6,5 L7,5 L7,6 L10,6 L10,7 L-1,7 L-1,5 L-4,5 L-4,6 L-2,6 L-2,9 L-7,9 L-7,11 L-9,11 L-9,14 L-10,14 L-10,15 L-12,15 L-12,31 L-11,31 L-11,34 L-12,34 L-12,32 L-13,32 L-13,28 L-14,28 L-14,18 L-13,18 L-13,13 L-12,13 L-12,11 L-11,11 L-11,9 L-10,9 L-10,7 L-9,7 L-9,4 L-8,4 L-8,5 L-5,5 L-5,4 L-2,4 L-2,2 L-1,2 L-1,1 L0,1 Z M10,1 L16,1 L16,2 L17,2 L17,6 L14,6 L14,7 L13,7 L13,6 L10,6 Z " fill="#FCC107" transform="translate(99,36)"/>
<path d="M0,0 L10,0 L10,1 L14,1 L14,2 L16,2 L16,3 L18,3 L18,4 L20,4 L20,6 L21,6 L21,7 L23,7 L23,8 L24,8 L24,9 L25,9 L25,11 L24,11 L24,10 L23,10 L23,9 L21,9 L21,8 L20,8 L20,7 L19,7 L19,5 L15,5 L15,4 L12,4 L12,8 L13,8 L13,9 L12,9 L12,10 L9,10 L9,9 L8,9 L8,8 L7,8 L7,6 L6,6 L6,5 L0,5 L0,10 L-3,10 L-3,9 L-4,9 L-4,4 L-10,4 L-10,3 L-8,3 L-8,2 L-7,2 L-7,1 L0,1 Z " fill="#FBC109" transform="translate(109,32)"/>
<path d="M0,0 L1,0 L1,1 L3,1 L3,3 L5,3 L5,5 L6,5 L6,6 L7,6 L7,7 L8,7 L8,8 L9,8 L9,10 L14,10 L14,11 L15,11 L15,12 L16,12 L16,14 L18,14 L18,15 L22,15 L22,14 L32,14 L32,13 L35,13 L35,12 L36,12 L36,10 L41,10 L41,6 L45,6 L45,5 L46,5 L46,4 L47,4 L47,6 L46,6 L46,7 L44,7 L44,8 L43,8 L43,11 L44,11 L44,14 L43,14 L43,12 L42,12 L42,11 L41,11 L41,12 L39,12 L39,13 L37,13 L37,14 L35,14 L35,15 L32,15 L32,16 L26,16 L26,17 L23,17 L23,16 L17,16 L17,15 L14,15 L14,14 L12,14 L12,13 L10,13 L10,12 L9,12 L9,11 L8,11 L8,10 L6,10 L6,9 L5,9 L5,8 L4,8 L4,6 L3,6 L3,5 L2,5 L2,4 L1,4 L1,2 L0,2 Z " fill="#FBDF95" transform="translate(88,70)"/>
<path d="M0,0 L1,0 L1,1 L2,1 L2,3 L3,3 L3,5 L4,5 L4,6 L5,6 L5,10 L6,10 L6,22 L5,22 L5,24 L4,24 L4,13 L3,13 L3,14 L2,14 L2,17 L1,17 L1,11 L0,11 L0,12 L-2,12 L-2,15 L-1,15 L-1,16 L-2,16 L-2,17 L-3,17 L-3,18 L-5,18 L-5,11 L-4,11 L-4,12 L-3,12 L-3,9 L-2,9 L-2,6 L-3,6 L-3,5 L-1,5 L-1,6 L1,6 L1,2 L0,2 Z " fill="#FEBF09" transform="translate(134,43)"/>
<path d="M0,0 L4,0 L4,1 L1,1 L1,2 L-1,2 L-1,3 L0,3 L0,4 L-1,4 L-1,7 L-2,7 L-2,8 L-3,8 L-3,10 L-4,10 L-4,11 L-5,11 L-5,12 L-6,12 L-6,11 L-7,11 L-7,12 L-9,12 L-9,14 L-10,14 L-10,15 L-11,15 L-11,13 L-13,13 L-13,14 L-15,14 L-15,12 L-14,12 L-14,10 L-13,10 L-13,9 L-12,9 L-12,7 L-11,7 L-11,6 L-10,6 L-10,5 L-8,5 L-8,4 L-7,4 L-7,3 L-5,3 L-5,2 L-3,2 L-3,1 L0,1 Z " fill="#509291" transform="translate(17,0)"/>
<path d="M0,0 L4,0 L4,1 L6,1 L6,2 L8,2 L8,4 L10,4 L10,5 L11,5 L11,7 L13,7 L13,8 L15,8 L15,12 L16,12 L16,13 L17,13 L17,16 L18,16 L18,18 L19,18 L19,31 L18,31 L18,34 L17,34 L17,36 L16,36 L16,38 L15,38 L15,40 L13,40 L13,41 L12,41 L12,39 L13,39 L13,38 L14,38 L14,36 L15,36 L15,34 L16,34 L16,32 L17,32 L17,20 L16,20 L16,16 L15,16 L15,15 L14,15 L14,13 L13,13 L13,11 L12,11 L12,10 L11,10 L11,8 L10,8 L10,7 L9,7 L9,6 L7,6 L7,5 L6,5 L6,3 L4,3 L4,2 L2,2 L2,1 L0,1 Z " fill="#7F8B45" transform="translate(123,33)"/>
<path d="M0,0 L16,0 L16,1 L19,1 L19,2 L20,2 L20,3 L16,3 L16,2 L6,2 L6,3 L-1,3 L-1,4 L-2,4 L-2,5 L-4,5 L-4,7 L-5,7 L-5,8 L-6,8 L-6,10 L-9,10 L-9,11 L-12,11 L-12,10 L-18,10 L-18,9 L-12,9 L-12,7 L-11,7 L-11,6 L-10,6 L-10,5 L-7,5 L-7,4 L-4,4 L-4,2 L-1,2 L-1,1 L0,1 Z " fill="#648555" transform="translate(103,30)"/>
<path d="M0,0 L1,0 L1,2 L2,2 L2,3 L3,3 L3,4 L4,4 L4,5 L5,5 L5,6 L6,6 L6,7 L8,7 L8,8 L9,8 L9,9 L11,9 L11,10 L13,10 L13,11 L16,11 L16,12 L12,12 L12,13 L15,13 L15,14 L11,14 L11,13 L10,13 L10,12 L9,12 L9,11 L5,11 L5,12 L7,12 L7,13 L4,13 L4,15 L3,15 L3,13 L1,13 L1,11 L3,11 L3,10 L2,10 L2,9 L0,9 L0,11 L-1,11 L-1,12 L-3,12 L-3,9 L-1,9 L-1,8 L0,8 L0,5 L1,5 L1,4 L0,4 Z " fill="#3E8987" transform="translate(20,98)"/>
<path d="M0,0 L6,0 L6,1 L7,1 L7,2 L8,2 L8,3 L9,3 L9,4 L12,4 L12,5 L16,5 L16,4 L15,4 L15,3 L17,3 L17,4 L21,4 L21,5 L17,5 L17,6 L13,6 L13,7 L11,7 L11,8 L5,8 L5,6 L4,6 L4,4 L3,4 L3,3 L0,3 L0,4 L-2,4 L-2,6 L-5,6 L-5,2 L-4,2 L-4,1 L0,1 Z " fill="#29817F" transform="translate(53,35)"/>
<path d="M0,0 L1,0 L1,5 L2,5 L2,7 L3,7 L3,6 L5,6 L5,11 L4,11 L4,15 L3,15 L3,17 L2,17 L2,18 L0,18 L0,16 L-1,16 L-1,12 L0,12 L0,10 L-1,10 L-1,11 L-2,11 L-2,12 L-3,12 L-3,11 L-4,11 L-4,12 L-6,12 L-6,11 L-5,11 L-5,10 L-4,10 L-4,9 L-3,9 L-3,8 L-2,8 L-2,6 L-1,6 L-1,4 L0,4 Z " fill="#298182" transform="translate(133,95)"/>
<path d="M0,0 L1,0 L1,1 L3,1 L3,5 L2,5 L2,7 L0,7 L0,10 L-1,10 L-1,11 L-3,11 L-3,27 L-2,27 L-2,30 L-3,30 L-3,28 L-4,28 L-4,24 L-5,24 L-5,14 L-4,14 L-4,9 L-3,9 L-3,7 L-2,7 L-2,5 L-1,5 L-1,3 L0,3 Z " fill="#FBE6B1" transform="translate(90,40)"/>
<path d="M0,0 L10,0 L10,1 L14,1 L14,2 L16,2 L16,3 L18,3 L18,4 L20,4 L20,6 L21,6 L21,7 L23,7 L23,8 L24,8 L24,9 L25,9 L25,11 L24,11 L24,10 L23,10 L23,9 L21,9 L21,8 L20,8 L20,7 L19,7 L19,5 L15,5 L15,4 L12,4 L12,2 L-6,2 L-6,4 L-10,4 L-10,3 L-8,3 L-8,2 L-7,2 L-7,1 L0,1 Z " fill="#E0B927" transform="translate(109,32)"/>
<path d="M0,0 L1,0 L1,4 L0,4 L0,8 L-1,8 L-1,9 L-2,9 L-2,12 L-5,12 L-5,22 L-6,22 L-6,18 L-7,18 L-7,12 L-8,12 L-8,9 L-7,9 L-7,8 L-5,8 L-5,7 L-4,7 L-4,5 L-3,5 L-3,4 L-1,4 L-1,2 L0,2 Z " fill="#559086" transform="translate(139,69)"/>
<path d="M0,0 L1,0 L1,2 L0,2 L0,3 L-2,3 L-2,4 L-3,4 L-3,7 L-2,7 L-2,10 L-3,10 L-3,8 L-4,8 L-4,7 L-5,7 L-5,8 L-7,8 L-7,9 L-9,9 L-9,10 L-11,10 L-11,11 L-14,11 L-14,12 L-22,12 L-22,11 L-24,11 L-24,10 L-14,10 L-14,9 L-11,9 L-11,8 L-10,8 L-10,6 L-5,6 L-5,2 L-1,2 L-1,1 L0,1 Z " fill="#F8D262" transform="translate(134,74)"/>
<path d="M0,0 L16,0 L16,1 L18,1 L18,2 L19,2 L19,3 L20,3 L20,4 L22,4 L22,5 L24,5 L24,7 L27,7 L27,11 L25,11 L25,9 L24,9 L24,8 L22,8 L22,6 L20,6 L20,5 L18,5 L18,4 L14,4 L14,3 L13,3 L13,2 L10,2 L10,1 L0,1 Z " fill="#48816A" transform="translate(109,29)"/>
<path d="M0,0 L2,0 L2,2 L3,2 L3,3 L2,3 L2,5 L1,5 L1,6 L0,6 L0,8 L-11,8 L-11,9 L-15,9 L-15,10 L-17,10 L-17,11 L-19,11 L-19,9 L-17,9 L-17,8 L-15,8 L-15,7 L-10,7 L-10,6 L-11,6 L-11,4 L-10,4 L-10,5 L-8,5 L-8,6 L-6,6 L-6,7 L-1,7 L-1,3 L0,3 Z " fill="#5A9392" transform="translate(49,49)"/>
<path d="M0,0 L1,0 L1,4 L3,4 L3,3 L9,3 L9,4 L8,4 L8,5 L7,5 L7,6 L6,6 L6,7 L4,7 L4,8 L3,8 L3,9 L1,9 L1,10 L-1,10 L-1,9 L0,9 L0,8 L-2,8 L-2,7 L-1,7 L-1,6 L-2,6 L-2,4 L-1,4 L-1,1 L0,1 Z " fill="#438C89" transform="translate(135,139)"/>
<path d="M0,0 L1,0 L1,1 L2,1 L2,3 L3,3 L3,5 L4,5 L4,6 L5,6 L5,10 L6,10 L6,22 L5,22 L5,24 L4,24 L4,11 L3,11 L3,7 L1,7 L1,2 L0,2 Z " fill="#E0BA24" transform="translate(134,43)"/>
<path d="M0,0 L4,0 L4,3 L8,3 L8,4 L10,4 L10,6 L11,6 L11,8 L10,8 L10,9 L11,9 L11,10 L9,10 L9,9 L8,9 L8,8 L6,8 L6,7 L5,7 L5,6 L4,6 L4,5 L3,5 L3,4 L2,4 L2,3 L1,3 L1,2 L0,2 Z " fill="#559190" transform="translate(3,138)"/>
<path d="M0,0 L6,0 L6,1 L9,1 L9,2 L11,2 L11,3 L13,3 L13,4 L14,4 L14,5 L15,5 L15,6 L16,6 L16,7 L17,7 L17,8 L18,8 L18,9 L17,9 L17,10 L16,10 L16,8 L14,8 L14,7 L12,7 L12,5 L7,5 L7,4 L8,4 L8,2 L2,2 L2,1 L0,1 Z " fill="#6C9E9A" transform="translate(127,0)"/>
<path d="M0,0 L12,0 L12,1 L15,1 L15,2 L16,2 L16,3 L12,3 L12,2 L2,2 L2,3 L-4,3 L-4,2 L-3,2 L-3,1 L0,1 Z " fill="#808C41" transform="translate(107,30)"/>
<path d="M0,0 L1,0 L1,5 L2,5 L2,8 L1,8 L1,9 L0,9 L0,10 L-1,10 L-1,11 L-2,11 L-2,12 L-3,12 L-3,11 L-4,11 L-4,12 L-6,12 L-6,11 L-5,11 L-5,10 L-4,10 L-4,9 L-3,9 L-3,8 L-2,8 L-2,6 L-1,6 L-1,4 L0,4 Z " fill="#689D9B" transform="translate(133,95)"/>
<path d="M0,0 L1,0 L1,2 L2,2 L2,3 L3,3 L3,4 L4,4 L4,5 L5,5 L5,6 L6,6 L6,7 L8,7 L8,8 L9,8 L9,9 L7,9 L7,10 L6,10 L6,8 L2,8 L2,7 L0,7 L0,5 L1,5 L1,4 L0,4 Z " fill="#599794" transform="translate(20,98)"/>
<path d="M0,0 L1,0 L1,1 L3,1 L3,5 L2,5 L2,7 L0,7 L0,10 L-1,10 L-1,11 L-2,11 L-2,5 L-1,5 L-1,3 L0,3 Z " fill="#F9D265" transform="translate(90,40)"/>
<path d="M0,0 L4,0 L4,1 L1,1 L1,2 L-1,2 L-1,3 L0,3 L0,4 L-1,4 L-1,7 L-2,7 L-2,8 L-3,8 L-3,5 L-5,5 L-5,4 L-6,4 L-6,5 L-8,5 L-8,4 L-7,4 L-7,3 L-5,3 L-5,2 L-3,2 L-3,1 L0,1 Z " fill="#629A99" transform="translate(17,0)"/>
<path d="M0,0 L2,0 L2,1 L3,1 L3,2 L4,2 L4,3 L6,3 L6,4 L8,4 L8,6 L11,6 L11,10 L9,10 L9,8 L8,8 L8,7 L6,7 L6,5 L4,5 L4,4 L2,4 L2,2 L1,2 L1,1 L0,1 Z " fill="#3E8073" transform="translate(125,30)"/>
<path d="M0,0 L1,0 L1,1 L2,1 L2,3 L1,3 L1,5 L0,5 L0,7 L-1,7 L-1,8 L-2,8 L-2,9 L-3,9 L-3,8 L-4,8 L-4,7 L-3,7 L-3,2 L-1,2 L-1,1 L0,1 Z " fill="#649D98" transform="translate(147,133)"/>
<path d="M0,0 L1,0 L1,12 L2,12 L2,15 L3,15 L3,17 L4,17 L4,19 L2,19 L2,18 L1,18 L1,15 L0,15 Z " fill="#9FC0BF" transform="translate(16,79)"/>
<path d="M0,0 L1,0 L1,1 L3,1 L3,4 L1,4 L1,6 L-3,6 L-3,2 L-2,2 L-2,1 L0,1 Z " fill="#2C7D7A" transform="translate(11,4)"/>
<path d="M0,0 L4,0 L4,1 L3,1 L3,2 L2,2 L2,4 L-1,4 L-1,5 L-4,5 L-4,4 L-10,4 L-10,3 L-1,3 L-1,2 L0,2 Z " fill="#ABA754" transform="translate(95,36)"/>
<path d="M0,0 L4,0 L4,1 L6,1 L6,2 L8,2 L8,4 L10,4 L10,5 L11,5 L11,8 L10,8 L10,7 L9,7 L9,6 L7,6 L7,5 L6,5 L6,3 L4,3 L4,2 L2,2 L2,1 L0,1 Z " fill="#768944" transform="translate(123,33)"/>
<path d="M0,0 L4,0 L4,1 L2,1 L2,2 L1,2 L1,3 L0,3 L0,4 L-1,4 L-1,5 L-2,5 L-2,6 L-3,6 L-3,7 L-4,7 L-4,2 L-3,2 L-3,1 L0,1 Z " fill="#6CA1A0" transform="translate(26,60)"/>
<path d="M0,0 L2,0 L2,1 L6,1 L6,3 L3,3 L3,4 L2,4 L2,10 L1,10 L1,5 L-1,5 L-1,4 L0,4 L0,2 L1,2 L1,1 L0,1 Z " fill="#338684" transform="translate(20,58)"/>
<path d="M0,0 L2,0 L2,2 L3,2 L3,3 L2,3 L2,5 L1,5 L1,6 L0,6 L0,8 L-8,8 L-8,7 L-1,7 L-1,3 L0,3 Z " fill="#70A2A0" transform="translate(49,49)"/>
<path d="M0,0 L2,0 L2,1 L6,1 L6,2 L2,2 L2,3 L-2,3 L-2,4 L-4,4 L-4,5 L-6,5 L-6,4 L-7,4 L-7,3 L-5,3 L-5,1 L-3,1 L-3,2 L1,2 L1,1 L0,1 Z " fill="#73A6A3" transform="translate(68,38)"/>
<path d="M0,0 L1,0 L1,2 L0,2 L0,3 L-2,3 L-2,4 L-3,4 L-3,7 L-2,7 L-2,10 L-3,10 L-3,8 L-4,8 L-4,7 L-5,7 L-5,2 L-1,2 L-1,1 L0,1 Z " fill="#CDB746" transform="translate(134,74)"/>
<path d="M0,0 L2,0 L2,2 L6,2 L6,3 L5,3 L5,4 L3,4 L3,5 L2,5 L2,6 L0,6 Z " fill="#5E9996" transform="translate(56,41)"/>
<path d="M0,0 L1,0 L1,1 L3,1 L3,3 L4,3 L4,5 L3,5 L3,6 L4,6 L4,7 L2,7 L2,6 L1,6 L1,5 L0,5 Z " fill="#30827F" transform="translate(10,141)"/>
<path d="M0,0 L3,0 L3,1 L2,1 L2,3 L4,3 L4,1 L5,1 L5,2 L6,2 L6,3 L5,3 L5,4 L4,4 L4,5 L3,5 L3,6 L1,6 L1,4 L0,4 L0,2 L1,2 L1,1 L0,1 Z " fill="#4B8F8E" transform="translate(50,45)"/>
<path d="M0,0 L6,0 L6,1 L7,1 L7,2 L8,2 L8,3 L2,3 L2,2 L1,2 L1,1 L0,1 Z " fill="#FAD05B" transform="translate(96,80)"/>
<path d="M0,0 L1,0 L1,1 L2,1 L2,3 L1,3 L1,5 L0,5 L0,6 L-1,6 L-1,8 L-2,8 L-2,4 L-3,4 L-3,3 L-2,3 L-2,2 L-1,2 L-1,3 L0,3 Z " fill="#F7C016" transform="translate(136,66)"/>
<path d="M0,0 L1,0 L1,4 L0,4 L0,6 L-1,6 L-1,7 L-4,7 L-4,5 L-3,5 L-3,4 L-1,4 L-1,2 L0,2 Z " fill="#5A845B" transform="translate(139,69)"/>
<path d="M0,0 L2,0 L2,1 L1,1 L1,2 L-1,2 L-1,4 L-2,4 L-2,5 L-5,5 L-5,3 L-4,3 L-4,2 L-3,2 L-3,1 L0,1 Z " fill="#558063" transform="translate(96,34)"/>
<path d="M0,0 L1,0 L1,1 L2,1 L2,3 L1,3 L1,4 L0,4 L0,6 L-1,6 L-1,4 L-2,4 L-2,3 L-3,3 L-3,1 L-1,1 L-1,2 L0,2 Z " fill="#5E9C99" transform="translate(19,67)"/>
<path d="M0,0 L2,0 L2,1 L3,1 L3,2 L4,2 L4,3 L5,3 L5,4 L6,4 L6,5 L5,5 L5,6 L4,6 L4,4 L2,4 L2,3 L0,3 Z " fill="#59928F" transform="translate(139,4)"/>
<path d="M0,0 L5,0 L5,2 L3,2 L3,3 L-1,3 L-1,2 L0,2 Z " fill="#F9CB4E" transform="translate(124,80)"/>
<path d="M0,0 L2,0 L2,1 L4,1 L4,4 L1,4 L1,3 L0,3 Z " fill="#6C884F" transform="translate(134,40)"/>
<path d="M0,0 L4,0 L4,3 L3,3 L3,4 L2,4 L2,3 L1,3 L1,2 L0,2 Z " fill="#619B94" transform="translate(3,138)"/>
<path d="M0,0 L2,0 L2,1 L1,1 L1,4 L-3,4 L-3,2 L-1,2 L-1,1 L0,1 Z " fill="#288384" transform="translate(11,6)"/>
<path d="M0,0 L4,0 L4,1 L5,1 L5,4 L4,4 L4,3 L3,3 L3,2 L1,2 L1,1 L0,1 Z " fill="#888F3A" transform="translate(129,37)"/>
<path d="M0,0 L4,0 L4,1 L3,1 L3,2 L2,2 L2,3 L1,3 L1,4 L0,4 Z " fill="#6B9B99" transform="translate(140,142)"/>
<path d="M0,0 L1,0 L1,2 L0,2 L0,3 L-1,3 L-1,4 L-2,4 L-2,5 L-3,5 L-3,2 L-2,2 L-2,1 L0,1 Z " fill="#7C8B46" transform="translate(134,76)"/>
<path d="M0,0 L2,0 L2,2 L1,2 L1,3 L2,3 L2,4 L0,4 L0,3 L-1,3 L-1,1 L0,1 Z " fill="#609695" transform="translate(12,144)"/>
<path d="M0,0 L1,0 L1,2 L2,2 L2,3 L3,3 L3,4 L2,4 L2,5 L1,5 L1,4 L0,4 Z " fill="#6A9F9C" transform="translate(20,98)"/>
</svg>
