<?xml version="1.0" encoding="UTF-8"?>
<svg version="1.1" xmlns="http://www.w3.org/2000/svg" width="378" height="94">
<path d="M0,0 L8,0 L8,1 L13,1 L13,2 L16,2 L16,3 L19,3 L19,4 L21,4 L21,5 L22,5 L22,6 L24,6 L24,7 L26,7 L26,8 L27,8 L27,9 L28,9 L28,10 L29,10 L29,11 L30,11 L30,12 L31,12 L31,13 L32,13 L32,14 L33,14 L33,15 L34,15 L34,17 L35,17 L35,19 L36,19 L36,21 L37,21 L37,23 L38,23 L38,25 L39,25 L39,29 L40,29 L40,36 L41,36 L41,38 L40,38 L40,45 L39,45 L39,49 L38,49 L38,51 L37,51 L37,53 L36,53 L36,55 L35,55 L35,56 L34,56 L34,58 L33,58 L33,59 L32,59 L32,60 L31,60 L31,61 L30,61 L30,62 L29,62 L29,63 L28,63 L28,64 L27,64 L27,65 L26,65 L26,66 L25,66 L25,67 L23,67 L23,68 L22,68 L22,70 L23,70 L23,72 L24,72 L24,74 L25,74 L25,77 L26,77 L26,79 L27,79 L27,81 L28,81 L28,79 L29,79 L29,77 L30,77 L30,75 L31,75 L31,73 L32,73 L32,71 L33,71 L33,69 L42,69 L42,72 L43,72 L43,71 L45,71 L45,70 L47,70 L47,69 L57,69 L57,70 L59,70 L59,71 L60,71 L60,72 L61,72 L61,73 L62,73 L62,74 L64,74 L64,72 L65,72 L65,71 L67,71 L67,70 L68,70 L68,69 L78,69 L78,70 L81,70 L81,69 L91,69 L91,61 L100,61 L100,69 L103,69 L103,54 L112,54 L112,71 L113,71 L113,70 L115,70 L115,69 L123,69 L123,70 L125,70 L125,71 L127,71 L127,72 L128,72 L128,74 L129,74 L129,75 L130,75 L130,73 L131,73 L131,72 L133,72 L133,71 L134,71 L134,70 L136,70 L136,69 L146,69 L146,70 L148,70 L148,71 L150,71 L150,72 L151,72 L151,73 L152,73 L152,70 L153,70 L153,69 L161,69 L161,71 L163,71 L163,70 L164,70 L164,69 L177,69 L177,70 L178,70 L178,72 L179,72 L179,75 L180,75 L180,77 L181,77 L181,79 L182,79 L182,81 L183,81 L183,79 L184,79 L184,77 L185,77 L185,75 L186,75 L186,72 L187,72 L187,70 L188,70 L188,69 L194,69 L194,70 L195,70 L195,73 L196,73 L196,75 L197,75 L197,77 L198,77 L198,79 L199,79 L199,81 L200,81 L200,79 L201,79 L201,76 L202,76 L202,74 L203,74 L203,72 L204,72 L204,70 L205,70 L205,69 L220,69 L220,88 L221,88 L221,87 L222,87 L222,85 L224,85 L224,86 L226,86 L226,87 L231,87 L231,85 L229,85 L229,84 L226,84 L226,83 L225,83 L225,82 L223,82 L223,81 L222,81 L222,79 L221,79 L221,73 L222,73 L222,72 L223,72 L223,71 L224,71 L224,70 L226,70 L226,69 L237,69 L237,70 L239,70 L239,73 L238,73 L238,75 L237,75 L237,76 L234,76 L234,75 L229,75 L229,77 L231,77 L231,78 L234,78 L234,79 L236,79 L236,80 L238,80 L238,76 L239,76 L239,75 L240,75 L240,73 L241,73 L241,72 L242,72 L242,71 L244,71 L244,70 L246,70 L246,69 L256,69 L256,70 L258,70 L258,71 L259,71 L259,72 L260,72 L260,73 L261,73 L261,74 L262,74 L262,76 L263,76 L263,81 L264,81 L264,82 L263,82 L263,83 L247,83 L247,85 L248,85 L248,86 L249,86 L249,87 L254,87 L254,86 L256,86 L256,85 L259,85 L259,86 L261,86 L261,87 L263,87 L263,85 L264,85 L264,84 L265,84 L265,83 L271,83 L271,84 L272,84 L272,85 L273,85 L273,88 L274,88 L274,89 L273,89 L273,92 L272,92 L272,93 L270,93 L270,94 L266,94 L266,93 L264,93 L264,92 L263,92 L263,90 L261,90 L261,91 L260,91 L260,92 L258,92 L258,93 L255,93 L255,94 L247,94 L247,93 L245,93 L245,92 L243,92 L243,91 L242,91 L242,90 L241,90 L241,89 L239,89 L239,91 L238,91 L238,92 L236,92 L236,93 L233,93 L233,94 L225,94 L225,93 L222,93 L222,92 L220,92 L220,93 L212,93 L212,76 L211,76 L211,78 L210,78 L210,79 L209,79 L209,81 L208,81 L208,83 L207,83 L207,85 L206,85 L206,87 L205,87 L205,89 L204,89 L204,90 L203,90 L203,92 L202,92 L202,93 L196,93 L196,92 L195,92 L195,90 L194,90 L194,88 L193,88 L193,85 L192,85 L192,83 L190,83 L190,85 L189,85 L189,87 L188,87 L188,90 L187,90 L187,92 L186,92 L186,93 L179,93 L179,91 L178,91 L178,89 L177,89 L177,87 L176,87 L176,85 L175,85 L175,83 L174,83 L174,81 L173,81 L173,79 L172,79 L172,78 L171,78 L171,77 L167,77 L167,76 L164,76 L164,77 L162,77 L162,79 L161,79 L161,93 L152,93 L152,90 L151,90 L151,91 L150,91 L150,92 L148,92 L148,93 L145,93 L145,94 L138,94 L138,93 L135,93 L135,92 L133,92 L133,91 L132,91 L132,90 L131,90 L131,89 L130,89 L130,88 L129,88 L129,93 L120,93 L120,77 L119,77 L119,76 L114,76 L114,77 L113,77 L113,78 L112,78 L112,93 L103,93 L103,94 L97,94 L97,93 L95,93 L95,92 L93,92 L93,90 L92,90 L92,87 L91,87 L91,76 L89,76 L89,93 L81,93 L81,92 L79,92 L79,93 L76,93 L76,94 L70,94 L70,93 L67,93 L67,92 L66,92 L66,91 L65,91 L65,90 L64,90 L64,89 L63,89 L63,90 L62,90 L62,91 L60,91 L60,92 L59,92 L59,93 L56,93 L56,94 L48,94 L48,93 L45,93 L45,92 L44,92 L44,91 L42,91 L42,90 L41,90 L41,88 L40,88 L40,87 L39,87 L39,84 L38,84 L38,80 L37,80 L37,82 L36,82 L36,83 L35,83 L35,85 L34,85 L34,87 L33,87 L33,89 L32,89 L32,91 L31,91 L31,93 L24,93 L24,91 L23,91 L23,89 L22,89 L22,87 L21,87 L21,85 L20,85 L20,83 L18,83 L18,86 L17,86 L17,88 L16,88 L16,90 L15,90 L15,92 L14,92 L14,93 L8,93 L8,92 L7,92 L7,91 L5,91 L5,92 L3,92 L3,93 L0,93 L0,94 L-82,94 L-82,93 L-86,93 L-86,92 L-88,92 L-88,91 L-90,91 L-90,90 L-92,90 L-92,89 L-93,89 L-93,88 L-95,88 L-95,87 L-96,87 L-96,86 L-97,86 L-97,85 L-98,85 L-98,83 L-99,83 L-99,82 L-100,82 L-100,80 L-101,80 L-101,78 L-102,78 L-102,76 L-103,76 L-103,72 L-104,72 L-104,61 L-103,61 L-103,58 L-102,58 L-102,55 L-101,55 L-101,53 L-100,53 L-100,52 L-99,52 L-99,50 L-98,50 L-98,49 L-97,49 L-97,48 L-96,48 L-96,47 L-95,47 L-95,46 L-94,46 L-94,45 L-92,45 L-92,44 L-91,44 L-91,43 L-88,43 L-88,42 L-86,42 L-86,41 L-82,41 L-82,40 L-72,40 L-72,39 L-71,39 L-71,37 L-70,37 L-70,36 L-69,36 L-69,35 L-68,35 L-68,34 L-67,34 L-67,33 L-66,33 L-66,32 L-65,32 L-65,31 L-64,31 L-64,30 L-63,30 L-63,29 L-61,29 L-61,28 L-60,28 L-60,27 L-58,27 L-58,26 L-57,26 L-57,25 L-54,25 L-54,24 L-51,24 L-51,23 L-47,23 L-47,22 L-31,22 L-31,21 L-30,21 L-30,20 L-29,20 L-29,19 L-28,19 L-28,18 L-27,18 L-27,16 L-26,16 L-26,15 L-25,15 L-25,13 L-24,13 L-24,12 L-23,12 L-23,11 L-22,11 L-22,10 L-21,10 L-21,9 L-19,9 L-19,8 L-18,8 L-18,7 L-16,7 L-16,6 L-15,6 L-15,5 L-13,5 L-13,4 L-11,4 L-11,3 L-9,3 L-9,2 L-6,2 L-6,1 L0,1 Z M41,72 L41,73 L42,73 L42,72 Z M49,75 L49,76 L48,76 L48,78 L55,78 L55,76 L54,76 L54,75 Z M138,75 L138,76 L137,76 L137,78 L145,78 L145,76 L144,76 L144,75 Z M248,75 L248,76 L247,76 L247,78 L255,78 L255,77 L254,77 L254,75 Z M74,76 L74,77 L72,77 L72,78 L71,78 L71,84 L72,84 L72,85 L73,85 L73,86 L78,86 L78,85 L80,85 L80,82 L81,82 L81,80 L80,80 L80,78 L79,78 L79,77 L77,77 L77,76 Z M100,76 L100,85 L101,85 L101,86 L103,86 L103,76 Z M38,78 L38,79 L39,79 L39,78 Z M47,83 L47,84 L48,84 L48,86 L50,86 L50,87 L55,87 L55,86 L56,86 L56,85 L60,85 L60,86 L62,86 L62,84 L61,84 L61,83 Z M137,83 L137,85 L138,85 L138,86 L140,86 L140,87 L144,87 L144,86 L146,86 L146,85 L150,85 L150,86 L152,86 L152,83 Z " fill="#B3E0E0" transform="translate(104,0)"/>
<path d="M0,0 L9,0 L9,17 L10,17 L10,16 L12,16 L12,15 L20,15 L20,16 L22,16 L22,17 L24,17 L24,18 L25,18 L25,20 L26,20 L26,21 L27,21 L27,19 L28,19 L28,18 L30,18 L30,17 L31,17 L31,16 L33,16 L33,15 L43,15 L43,16 L45,16 L45,17 L47,17 L47,18 L48,18 L48,19 L49,19 L49,16 L50,16 L50,15 L58,15 L58,17 L60,17 L60,16 L61,16 L61,15 L74,15 L74,16 L75,16 L75,18 L76,18 L76,21 L77,21 L77,23 L78,23 L78,25 L79,25 L79,27 L80,27 L80,25 L81,25 L81,23 L82,23 L82,21 L83,21 L83,18 L84,18 L84,16 L85,16 L85,15 L91,15 L91,16 L92,16 L92,19 L93,19 L93,21 L94,21 L94,23 L95,23 L95,25 L96,25 L96,27 L97,27 L97,25 L98,25 L98,22 L99,22 L99,20 L100,20 L100,18 L101,18 L101,16 L102,16 L102,15 L117,15 L117,34 L118,34 L118,33 L119,33 L119,31 L121,31 L121,32 L123,32 L123,33 L128,33 L128,31 L126,31 L126,30 L123,30 L123,29 L122,29 L122,28 L120,28 L120,27 L119,27 L119,25 L118,25 L118,19 L119,19 L119,18 L120,18 L120,17 L121,17 L121,16 L123,16 L123,15 L134,15 L134,16 L136,16 L136,19 L135,19 L135,21 L134,21 L134,22 L131,22 L131,21 L126,21 L126,23 L128,23 L128,24 L131,24 L131,25 L133,25 L133,26 L135,26 L135,22 L136,22 L136,21 L137,21 L137,19 L138,19 L138,18 L139,18 L139,17 L141,17 L141,16 L143,16 L143,15 L153,15 L153,16 L155,16 L155,17 L156,17 L156,18 L157,18 L157,19 L158,19 L158,20 L159,20 L159,22 L160,22 L160,27 L161,27 L161,28 L160,28 L160,29 L144,29 L144,31 L145,31 L145,32 L146,32 L146,33 L151,33 L151,32 L153,32 L153,31 L156,31 L156,32 L158,32 L158,33 L160,33 L160,31 L161,31 L161,30 L162,30 L162,29 L168,29 L168,30 L169,30 L169,31 L170,31 L170,34 L171,34 L171,35 L170,35 L170,38 L169,38 L169,39 L167,39 L167,40 L163,40 L163,39 L161,39 L161,38 L160,38 L160,36 L158,36 L158,37 L157,37 L157,38 L155,38 L155,39 L152,39 L152,40 L144,40 L144,39 L142,39 L142,38 L140,38 L140,37 L139,37 L139,36 L138,36 L138,35 L136,35 L136,37 L135,37 L135,38 L133,38 L133,39 L130,39 L130,40 L122,40 L122,39 L119,39 L119,38 L117,38 L117,39 L109,39 L109,22 L108,22 L108,24 L107,24 L107,25 L106,25 L106,27 L105,27 L105,29 L104,29 L104,31 L103,31 L103,33 L102,33 L102,35 L101,35 L101,36 L100,36 L100,38 L99,38 L99,39 L93,39 L93,38 L92,38 L92,36 L91,36 L91,34 L90,34 L90,31 L89,31 L89,29 L87,29 L87,31 L86,31 L86,33 L85,33 L85,36 L84,36 L84,38 L83,38 L83,39 L76,39 L76,37 L75,37 L75,35 L74,35 L74,33 L73,33 L73,31 L72,31 L72,29 L71,29 L71,27 L70,27 L70,25 L69,25 L69,24 L68,24 L68,23 L64,23 L64,22 L61,22 L61,23 L59,23 L59,25 L58,25 L58,39 L49,39 L49,36 L48,36 L48,37 L47,37 L47,38 L45,38 L45,39 L42,39 L42,40 L35,40 L35,39 L32,39 L32,38 L30,38 L30,37 L29,37 L29,36 L28,36 L28,35 L27,35 L27,34 L26,34 L26,39 L17,39 L17,23 L16,23 L16,22 L11,22 L11,23 L10,23 L10,24 L9,24 L9,39 L0,39 L0,40 L-6,40 L-6,39 L-8,39 L-8,38 L-10,38 L-10,36 L-11,36 L-11,33 L-12,33 L-12,22 L-14,22 L-14,39 L-22,39 L-22,38 L-24,38 L-24,39 L-27,39 L-27,40 L-33,40 L-33,39 L-36,39 L-36,38 L-37,38 L-37,37 L-38,37 L-38,36 L-39,36 L-39,35 L-40,35 L-40,36 L-41,36 L-41,37 L-43,37 L-43,38 L-44,38 L-44,39 L-47,39 L-47,40 L-55,40 L-55,39 L-58,39 L-58,38 L-59,38 L-59,37 L-61,37 L-61,36 L-62,36 L-62,34 L-63,34 L-63,33 L-64,33 L-64,30 L-65,30 L-65,26 L-66,26 L-66,28 L-67,28 L-67,29 L-68,29 L-68,31 L-69,31 L-69,33 L-70,33 L-70,35 L-71,35 L-71,37 L-72,37 L-72,39 L-79,39 L-79,37 L-80,37 L-80,35 L-81,35 L-81,33 L-82,33 L-82,31 L-83,31 L-83,29 L-85,29 L-85,32 L-86,32 L-86,34 L-87,34 L-87,36 L-88,36 L-88,38 L-89,38 L-89,39 L-95,39 L-95,38 L-96,38 L-96,35 L-97,35 L-97,34 L-98,34 L-98,32 L-99,32 L-99,30 L-100,30 L-100,28 L-101,28 L-101,26 L-102,26 L-102,24 L-103,24 L-103,23 L-104,23 L-104,21 L-105,21 L-105,19 L-106,19 L-106,16 L-97,16 L-97,18 L-96,18 L-96,21 L-95,21 L-95,23 L-94,23 L-94,25 L-93,25 L-93,27 L-91,27 L-91,25 L-90,25 L-90,22 L-89,22 L-89,20 L-88,20 L-88,17 L-87,17 L-87,16 L-80,16 L-80,18 L-79,18 L-79,20 L-78,20 L-78,23 L-77,23 L-77,25 L-76,25 L-76,27 L-75,27 L-75,25 L-74,25 L-74,23 L-73,23 L-73,21 L-72,21 L-72,19 L-71,19 L-71,17 L-70,17 L-70,15 L-61,15 L-61,18 L-60,18 L-60,17 L-58,17 L-58,16 L-56,16 L-56,15 L-46,15 L-46,16 L-44,16 L-44,17 L-43,17 L-43,18 L-42,18 L-42,19 L-41,19 L-41,20 L-39,20 L-39,18 L-38,18 L-38,17 L-36,17 L-36,16 L-35,16 L-35,15 L-25,15 L-25,16 L-22,16 L-22,15 L-12,15 L-12,7 L-3,7 L-3,15 L0,15 Z M-62,18 L-62,19 L-61,19 L-61,18 Z M-54,21 L-54,22 L-55,22 L-55,24 L-48,24 L-48,22 L-49,22 L-49,21 Z M35,21 L35,22 L34,22 L34,24 L42,24 L42,22 L41,22 L41,21 Z M145,21 L145,22 L144,22 L144,24 L152,24 L152,23 L151,23 L151,21 Z M-29,22 L-29,23 L-31,23 L-31,24 L-32,24 L-32,30 L-31,30 L-31,31 L-30,31 L-30,32 L-25,32 L-25,31 L-23,31 L-23,28 L-22,28 L-22,26 L-23,26 L-23,24 L-24,24 L-24,23 L-26,23 L-26,22 Z M-3,22 L-3,31 L-2,31 L-2,32 L0,32 L0,22 Z M-65,24 L-65,25 L-64,25 L-64,24 Z M-56,29 L-56,30 L-55,30 L-55,32 L-53,32 L-53,33 L-48,33 L-48,32 L-47,32 L-47,31 L-43,31 L-43,32 L-41,32 L-41,30 L-42,30 L-42,29 Z M34,29 L34,31 L35,31 L35,32 L37,32 L37,33 L41,33 L41,32 L43,32 L43,31 L47,31 L47,32 L49,32 L49,29 Z " fill="#398480" transform="translate(207,54)"/>
<path d="M0,0 L8,0 L8,1 L13,1 L13,2 L16,2 L16,3 L19,3 L19,4 L21,4 L21,5 L22,5 L22,6 L24,6 L24,7 L26,7 L26,8 L27,8 L27,9 L28,9 L28,10 L29,10 L29,11 L30,11 L30,12 L31,12 L31,13 L32,13 L32,14 L33,14 L33,15 L34,15 L34,17 L35,17 L35,19 L36,19 L36,21 L37,21 L37,23 L38,23 L38,25 L39,25 L39,29 L40,29 L40,36 L41,36 L41,38 L40,38 L40,45 L39,45 L39,49 L38,49 L38,51 L37,51 L37,53 L36,53 L36,55 L35,55 L35,56 L34,56 L34,58 L33,58 L33,59 L32,59 L32,60 L31,60 L31,61 L30,61 L30,62 L29,62 L29,63 L28,63 L28,64 L27,64 L27,65 L26,65 L26,66 L25,66 L25,67 L23,67 L23,68 L22,68 L22,70 L16,70 L16,71 L15,71 L15,74 L14,74 L14,76 L13,76 L13,79 L12,79 L12,81 L10,81 L10,79 L9,79 L9,77 L8,77 L8,75 L7,75 L7,72 L6,72 L6,70 L-3,70 L-3,74 L-10,74 L-10,73 L-14,73 L-14,72 L-15,72 L-15,71 L-16,71 L-16,67 L-17,67 L-17,66 L-18,66 L-18,65 L-19,65 L-19,64 L-20,64 L-20,63 L-21,63 L-21,62 L-22,62 L-22,61 L-23,61 L-23,60 L-24,60 L-24,57 L-25,57 L-25,56 L-26,56 L-26,54 L-27,54 L-27,52 L-29,52 L-29,48 L-30,48 L-30,47 L-32,47 L-32,45 L-33,45 L-33,29 L-32,29 L-32,27 L-31,27 L-31,23 L-30,23 L-30,22 L-29,22 L-29,21 L-28,21 L-28,20 L-27,20 L-27,16 L-26,16 L-26,15 L-25,15 L-25,13 L-24,13 L-24,12 L-23,12 L-23,11 L-22,11 L-22,10 L-21,10 L-21,9 L-19,9 L-19,8 L-18,8 L-18,7 L-16,7 L-16,6 L-15,6 L-15,5 L-13,5 L-13,4 L-11,4 L-11,3 L-9,3 L-9,2 L-6,2 L-6,1 L0,1 Z " fill="#FDC007" transform="translate(104,0)"/>
<path d="M0,0 L8,0 L8,2 L10,2 L10,1 L11,1 L11,0 L24,0 L24,1 L25,1 L25,3 L26,3 L26,6 L27,6 L27,8 L28,8 L28,10 L29,10 L29,12 L30,12 L30,10 L31,10 L31,8 L32,8 L32,6 L33,6 L33,3 L34,3 L34,1 L35,1 L35,0 L41,0 L41,1 L42,1 L42,4 L43,4 L43,6 L44,6 L44,8 L45,8 L45,10 L46,10 L46,12 L47,12 L47,10 L48,10 L48,7 L49,7 L49,5 L50,5 L50,3 L51,3 L51,1 L52,1 L52,0 L67,0 L67,19 L68,19 L68,18 L69,18 L69,16 L71,16 L71,17 L73,17 L73,18 L78,18 L78,16 L76,16 L76,15 L73,15 L73,14 L72,14 L72,13 L70,13 L70,12 L69,12 L69,10 L68,10 L68,4 L69,4 L69,3 L70,3 L70,2 L71,2 L71,1 L73,1 L73,0 L84,0 L84,1 L86,1 L86,4 L85,4 L85,6 L84,6 L84,7 L81,7 L81,6 L76,6 L76,8 L78,8 L78,9 L81,9 L81,10 L83,10 L83,11 L85,11 L85,7 L86,7 L86,6 L87,6 L87,4 L88,4 L88,3 L89,3 L89,2 L91,2 L91,1 L93,1 L93,0 L103,0 L103,1 L105,1 L105,2 L106,2 L106,3 L107,3 L107,4 L108,4 L108,5 L109,5 L109,7 L110,7 L110,12 L111,12 L111,13 L110,13 L110,14 L94,14 L94,16 L95,16 L95,17 L96,17 L96,18 L101,18 L101,17 L103,17 L103,16 L106,16 L106,17 L108,17 L108,18 L110,18 L110,16 L111,16 L111,15 L112,15 L112,14 L118,14 L118,15 L119,15 L119,16 L120,16 L120,19 L121,19 L121,20 L120,20 L120,23 L119,23 L119,24 L117,24 L117,25 L113,25 L113,24 L111,24 L111,23 L110,23 L110,21 L108,21 L108,22 L107,22 L107,23 L105,23 L105,24 L102,24 L102,25 L94,25 L94,24 L92,24 L92,23 L90,23 L90,22 L89,22 L89,21 L88,21 L88,20 L86,20 L86,22 L85,22 L85,23 L83,23 L83,24 L80,24 L80,25 L72,25 L72,24 L69,24 L69,23 L67,23 L67,24 L59,24 L59,7 L58,7 L58,9 L57,9 L57,10 L56,10 L56,12 L55,12 L55,14 L54,14 L54,16 L53,16 L53,18 L52,18 L52,20 L51,20 L51,21 L50,21 L50,23 L49,23 L49,24 L43,24 L43,23 L42,23 L42,21 L41,21 L41,19 L40,19 L40,16 L39,16 L39,14 L37,14 L37,16 L36,16 L36,18 L35,18 L35,21 L34,21 L34,23 L33,23 L33,24 L26,24 L26,22 L25,22 L25,20 L24,20 L24,18 L23,18 L23,16 L22,16 L22,14 L21,14 L21,12 L20,12 L20,10 L19,10 L19,9 L18,9 L18,8 L14,8 L14,7 L11,7 L11,8 L9,8 L9,10 L8,10 L8,24 L-1,24 L-1,21 L-2,21 L-2,22 L-3,22 L-3,23 L-5,23 L-5,24 L-8,24 L-8,25 L-15,25 L-15,24 L-18,24 L-18,23 L-20,23 L-20,22 L-16,22 L-16,19 L-14,19 L-14,18 L-16,18 L-16,16 L-17,16 L-17,13 L0,13 L0,23 L6,23 L6,16 L4,16 L4,8 L5,8 L5,6 L6,6 L6,5 L4,5 L4,7 L3,7 L3,6 L1,6 L1,8 L2,8 L2,9 L3,9 L3,10 L2,10 L2,12 L0,12 L0,11 L-3,11 L-3,10 L-4,10 L-4,4 L-5,4 L-5,2 L-3,2 L-3,3 L-2,3 L-2,4 L-1,4 L-1,1 L0,1 Z M95,6 L95,7 L94,7 L94,9 L102,9 L102,8 L101,8 L101,6 Z M-16,14 L-16,16 L-15,16 L-15,17 L-13,17 L-13,18 L-9,18 L-9,17 L-7,17 L-7,16 L-3,16 L-3,17 L-1,17 L-1,14 Z " fill="#2C807E" transform="translate(257,69)"/>
<path d="M0,0 L10,0 L10,1 L12,1 L12,4 L13,4 L13,10 L14,10 L14,11 L17,11 L17,12 L19,12 L19,10 L20,10 L20,9 L19,9 L19,8 L18,8 L18,6 L20,6 L20,7 L21,7 L21,5 L23,5 L23,6 L22,6 L22,8 L21,8 L21,16 L23,16 L23,23 L17,23 L17,13 L0,13 L0,16 L1,16 L1,18 L3,18 L3,19 L1,19 L1,22 L-4,22 L-4,21 L-5,21 L-5,19 L-4,19 L-4,17 L-7,17 L-7,15 L-8,15 L-8,23 L-15,23 L-15,6 L-16,6 L-16,5 L-17,5 L-17,4 L-20,4 L-20,2 L-18,2 L-18,3 L-16,3 L-16,2 L-14,2 L-14,4 L-15,4 L-15,5 L-14,5 L-14,6 L-12,6 L-12,7 L-11,7 L-11,4 L-10,4 L-10,7 L-9,7 L-9,5 L-7,5 L-7,6 L-6,6 L-6,4 L-5,4 L-5,3 L-3,3 L-3,2 L-2,2 L-2,1 L0,1 Z M2,6 L2,7 L1,7 L1,9 L9,9 L9,7 L8,7 L8,6 Z " fill="#2C807E" transform="translate(240,69)"/>
<path d="M0,0 L6,0 L6,4 L5,4 L5,6 L4,6 L4,22 L5,22 L5,24 L7,24 L7,25 L8,25 L8,29 L10,29 L10,31 L11,31 L11,33 L12,33 L12,34 L13,34 L13,37 L14,37 L14,38 L15,38 L15,39 L16,39 L16,40 L17,40 L17,41 L18,41 L18,42 L19,42 L19,43 L20,43 L20,44 L21,44 L21,48 L22,48 L22,49 L23,49 L23,50 L27,50 L27,51 L34,51 L34,50 L35,50 L35,52 L36,52 L36,54 L37,54 L37,55 L35,55 L35,54 L34,54 L34,56 L35,56 L35,61 L34,61 L34,58 L33,58 L33,57 L32,57 L32,56 L27,56 L27,55 L26,55 L26,54 L23,54 L23,53 L21,53 L21,52 L20,52 L20,53 L19,53 L19,52 L16,52 L16,50 L18,50 L18,48 L13,48 L13,47 L12,47 L12,48 L10,48 L10,47 L9,47 L9,48 L6,48 L6,44 L5,44 L5,38 L4,38 L4,32 L2,32 L2,30 L1,30 L1,29 L0,29 L0,26 L1,26 L1,22 L0,22 L0,5 L1,5 L1,2 L2,2 L2,1 L0,1 Z " fill="#B4DFDC" transform="translate(67,23)"/>
<path d="M0,0 L8,0 L8,2 L10,2 L10,1 L11,1 L11,0 L24,0 L24,1 L25,1 L25,3 L26,3 L26,6 L25,6 L25,7 L24,7 L24,3 L19,3 L19,5 L20,5 L20,8 L24,8 L24,10 L23,10 L23,13 L22,13 L22,14 L21,14 L21,12 L20,12 L20,10 L19,10 L19,9 L18,9 L18,8 L14,8 L14,7 L11,7 L11,8 L9,8 L9,10 L8,10 L8,24 L-1,24 L-1,21 L-2,21 L-2,22 L-3,22 L-3,23 L-5,23 L-5,24 L-8,24 L-8,25 L-15,25 L-15,24 L-18,24 L-18,23 L-20,23 L-20,22 L-16,22 L-16,19 L-14,19 L-14,18 L-16,18 L-16,16 L-17,16 L-17,13 L0,13 L0,23 L6,23 L6,16 L4,16 L4,8 L5,8 L5,6 L6,6 L6,5 L4,5 L4,7 L3,7 L3,6 L1,6 L1,8 L2,8 L2,9 L3,9 L3,10 L2,10 L2,12 L0,12 L0,11 L-3,11 L-3,10 L-4,10 L-4,4 L-5,4 L-5,2 L-3,2 L-3,3 L-2,3 L-2,4 L-1,4 L-1,1 L0,1 Z M-16,14 L-16,16 L-15,16 L-15,17 L-13,17 L-13,18 L-9,18 L-9,17 L-7,17 L-7,16 L-3,16 L-3,17 L-1,17 L-1,14 Z " fill="#438987" transform="translate(257,69)"/>
<path d="M0,0 L5,0 L5,8 L6,8 L6,9 L7,9 L7,8 L10,8 L10,13 L5,13 L5,16 L6,16 L6,23 L7,23 L7,25 L11,25 L11,11 L15,11 L15,12 L17,12 L17,11 L18,11 L18,10 L22,10 L22,12 L21,12 L21,13 L19,13 L19,17 L18,17 L18,27 L17,27 L17,29 L5,29 L5,30 L4,30 L4,28 L2,28 L2,27 L1,27 L1,21 L0,21 L0,12 L-4,12 L-4,11 L-5,11 L-5,13 L-8,13 L-8,14 L-10,14 L-10,15 L-9,15 L-9,17 L-8,17 L-8,22 L-11,22 L-11,17 L-12,17 L-12,15 L-14,15 L-14,13 L-15,13 L-15,12 L-14,12 L-14,10 L0,10 Z " fill="#2C807E" transform="translate(197,62)"/>
<path d="M0,0 L9,0 L9,17 L10,17 L10,16 L12,16 L12,15 L20,15 L20,16 L22,16 L22,17 L24,17 L24,18 L25,18 L25,20 L24,20 L24,22 L23,22 L23,19 L22,19 L22,22 L21,22 L21,21 L19,21 L19,20 L18,20 L18,19 L19,19 L19,17 L17,17 L17,18 L15,18 L15,17 L13,17 L13,19 L16,19 L16,20 L17,20 L17,21 L18,21 L18,38 L25,38 L25,30 L26,30 L26,32 L29,32 L29,34 L28,34 L28,35 L27,35 L27,34 L26,34 L26,39 L17,39 L17,23 L16,23 L16,22 L11,22 L11,23 L10,23 L10,24 L9,24 L9,21 L11,21 L11,20 L12,20 L12,18 L8,18 L8,19 L7,19 L7,20 L5,20 L5,19 L1,19 L1,33 L-3,33 L-3,31 L-4,31 L-4,24 L-5,24 L-5,21 L0,21 L0,16 L-3,16 L-3,17 L-4,17 L-4,16 L-5,16 L-5,8 L-11,8 L-11,16 L-22,16 L-22,15 L-12,15 L-12,7 L-3,7 L-3,15 L0,15 Z M-3,22 L-3,31 L-2,31 L-2,32 L0,32 L0,22 Z " fill="#84B1AF" transform="translate(207,54)"/>
<path d="M0,0 L1,0 L1,2 L2,2 L2,4 L3,4 L3,6 L4,6 L4,10 L5,10 L5,17 L6,17 L6,19 L5,19 L5,26 L4,26 L4,30 L3,30 L3,32 L2,32 L2,34 L1,34 L1,36 L0,36 L0,37 L-1,37 L-1,39 L-2,39 L-2,40 L-3,40 L-3,41 L-4,41 L-4,42 L-5,42 L-5,43 L-6,43 L-6,44 L-7,44 L-7,45 L-8,45 L-8,46 L-9,46 L-9,47 L-10,47 L-10,48 L-12,48 L-12,49 L-13,49 L-13,51 L-19,51 L-19,52 L-20,52 L-20,55 L-21,55 L-21,57 L-22,57 L-22,60 L-23,60 L-23,62 L-25,62 L-25,60 L-26,60 L-26,58 L-27,58 L-27,56 L-28,56 L-28,53 L-29,53 L-29,51 L-38,51 L-38,55 L-45,55 L-45,54 L-49,54 L-49,53 L-50,53 L-50,52 L-51,52 L-51,48 L-49,48 L-49,49 L-43,49 L-43,50 L-38,50 L-38,49 L-29,49 L-29,50 L-28,50 L-28,52 L-22,52 L-22,51 L-20,51 L-20,49 L-15,49 L-15,46 L-13,46 L-13,47 L-12,47 L-12,45 L-11,45 L-11,43 L-7,43 L-7,40 L-8,40 L-8,38 L-7,38 L-7,39 L-5,39 L-5,38 L-6,38 L-6,34 L-4,34 L-4,33 L-3,33 L-3,32 L-4,32 L-4,29 L-5,29 L-5,26 L-3,26 L-3,27 L-2,27 L-2,32 L-1,32 L-1,31 L0,31 L0,29 L1,29 L1,27 L2,27 L2,26 L3,26 L3,12 L1,12 L1,4 L0,4 Z " fill="#D9BF40" transform="translate(139,19)"/>
<path d="M0,0 L1,0 L1,1 L5,1 L5,10 L6,10 L6,16 L7,16 L7,17 L9,17 L9,19 L10,19 L10,18 L22,18 L22,16 L23,16 L23,6 L24,6 L24,20 L15,20 L15,21 L9,21 L9,20 L7,20 L7,19 L5,19 L5,17 L4,17 L4,14 L3,14 L3,3 L1,3 L1,20 L-7,20 L-7,19 L-9,19 L-9,20 L-12,20 L-12,21 L-18,21 L-18,20 L-21,20 L-21,19 L-22,19 L-22,18 L-19,18 L-19,17 L-18,17 L-18,14 L-17,14 L-17,11 L-16,11 L-16,12 L-15,12 L-15,13 L-10,13 L-10,12 L-8,12 L-8,9 L-7,9 L-7,7 L-8,7 L-8,5 L-9,5 L-9,4 L-7,4 L-7,6 L-6,6 L-6,11 L-3,11 L-3,6 L-4,6 L-4,4 L-5,4 L-5,3 L-3,3 L-3,2 L0,2 Z " fill="#30807E" transform="translate(192,73)"/>
<path d="M0,0 L9,0 L9,2 L10,2 L10,5 L11,5 L11,7 L12,7 L12,9 L13,9 L13,11 L15,11 L15,9 L16,9 L16,6 L17,6 L17,4 L18,4 L18,3 L19,3 L19,2 L25,2 L25,6 L26,6 L26,7 L25,7 L25,8 L24,8 L24,10 L20,10 L20,18 L19,18 L19,20 L18,20 L18,22 L17,22 L17,23 L11,23 L11,22 L10,22 L10,19 L9,19 L9,18 L8,18 L8,16 L7,16 L7,14 L6,14 L6,12 L5,12 L5,10 L4,10 L4,8 L3,8 L3,7 L2,7 L2,5 L1,5 L1,3 L0,3 Z " fill="#318583" transform="translate(101,70)"/>
<path d="M0,0 L8,0 L8,1 L13,1 L13,2 L16,2 L16,3 L19,3 L19,4 L21,4 L21,5 L22,5 L22,6 L24,6 L24,7 L26,7 L26,8 L27,8 L27,9 L28,9 L28,10 L29,10 L29,11 L30,11 L30,12 L31,12 L31,13 L32,13 L32,14 L33,14 L33,15 L34,15 L34,17 L35,17 L35,19 L33,19 L33,18 L32,18 L32,17 L31,17 L31,15 L29,15 L29,14 L26,14 L26,15 L25,15 L25,14 L24,14 L24,13 L21,13 L21,7 L20,7 L20,6 L17,6 L17,5 L15,5 L15,4 L13,4 L13,3 L9,3 L9,2 L-5,2 L-5,3 L-7,3 L-7,4 L-9,4 L-9,5 L-11,5 L-11,6 L-12,6 L-12,7 L-14,7 L-14,8 L-15,8 L-15,9 L-16,9 L-16,11 L-17,11 L-17,12 L-20,12 L-20,13 L-21,13 L-21,14 L-22,14 L-22,15 L-23,15 L-23,16 L-24,16 L-24,17 L-25,17 L-25,22 L-23,22 L-23,23 L-25,23 L-25,25 L-27,25 L-27,26 L-28,26 L-28,29 L-29,29 L-29,32 L-30,32 L-30,44 L-29,44 L-29,45 L-28,45 L-28,50 L-27,50 L-27,52 L-29,52 L-29,48 L-30,48 L-30,47 L-32,47 L-32,45 L-33,45 L-33,29 L-32,29 L-32,27 L-31,27 L-31,23 L-30,23 L-30,22 L-29,22 L-29,21 L-28,21 L-28,20 L-27,20 L-27,16 L-26,16 L-26,15 L-25,15 L-25,13 L-24,13 L-24,12 L-23,12 L-23,11 L-22,11 L-22,10 L-21,10 L-21,9 L-19,9 L-19,8 L-18,8 L-18,7 L-16,7 L-16,6 L-15,6 L-15,5 L-13,5 L-13,4 L-11,4 L-11,3 L-9,3 L-9,2 L-6,2 L-6,1 L0,1 Z " fill="#FBE2A7" transform="translate(104,0)"/>
<path d="M0,0 L13,0 L13,18 L14,18 L14,17 L15,17 L15,15 L17,15 L17,16 L19,16 L19,17 L24,17 L24,18 L21,18 L21,21 L20,21 L20,22 L19,22 L19,23 L23,23 L23,22 L25,22 L25,20 L26,20 L26,18 L30,18 L30,19 L31,19 L31,16 L34,16 L34,19 L32,19 L32,21 L31,21 L31,22 L29,22 L29,23 L26,23 L26,24 L18,24 L18,23 L15,23 L15,22 L13,22 L13,23 L5,23 L5,5 L6,5 L6,3 L4,3 L4,1 L0,1 Z " fill="#43827F" transform="translate(311,70)"/>
<path d="M0,0 L10,0 L10,1 L12,1 L12,2 L13,2 L13,3 L14,3 L14,4 L15,4 L15,5 L16,5 L16,7 L17,7 L17,12 L18,12 L18,13 L17,13 L17,14 L1,14 L1,16 L0,16 L0,13 L7,13 L7,12 L6,12 L6,11 L4,11 L4,10 L-1,10 L-1,8 L0,8 L0,7 L1,7 L1,6 L-1,6 L-1,4 L-2,4 L-2,5 L-3,5 L-3,3 L-4,3 L-4,2 L-2,2 L-2,1 L0,1 Z M2,6 L2,7 L1,7 L1,9 L9,9 L9,8 L8,8 L8,6 Z " fill="#438888" transform="translate(350,69)"/>
<path d="M0,0 L1,0 L1,3 L16,3 L16,5 L15,5 L15,4 L1,4 L1,5 L2,5 L2,7 L4,7 L4,8 L9,8 L9,7 L10,7 L10,6 L14,6 L14,7 L18,7 L18,9 L22,9 L22,11 L21,11 L21,10 L20,10 L20,12 L19,12 L19,11 L18,11 L18,10 L17,10 L17,11 L16,11 L16,12 L14,12 L14,13 L13,13 L13,14 L10,14 L10,15 L2,15 L2,14 L-1,14 L-1,13 L-2,13 L-2,12 L-4,12 L-4,11 L-5,11 L-5,9 L-4,9 L-4,6 L-3,6 L-3,5 L-2,5 L-2,3 L-1,3 L-1,2 L0,2 Z " fill="#629C9B" transform="translate(150,79)"/>
<path d="M0,0 L11,0 L11,1 L13,1 L13,4 L12,4 L12,6 L11,6 L11,7 L8,7 L8,6 L3,6 L3,8 L5,8 L5,9 L8,9 L8,10 L10,10 L10,11 L12,11 L12,7 L13,7 L13,6 L14,6 L14,4 L15,4 L15,3 L16,3 L16,5 L15,5 L15,8 L14,8 L14,10 L15,10 L15,11 L14,11 L14,12 L10,12 L10,13 L9,13 L9,11 L6,11 L6,10 L4,10 L4,11 L3,11 L3,10 L-3,10 L-3,11 L-2,11 L-2,12 L0,12 L0,14 L-1,14 L-1,13 L-3,13 L-3,12 L-4,12 L-4,10 L-5,10 L-5,4 L-4,4 L-4,3 L-3,3 L-3,2 L-2,2 L-2,1 L0,1 Z " fill="#488E8C" transform="translate(330,69)"/>
<path d="M0,0 L1,0 L1,2 L2,2 L2,4 L3,4 L3,6 L4,6 L4,10 L5,10 L5,17 L6,17 L6,19 L5,19 L5,26 L4,26 L4,30 L3,30 L3,32 L2,32 L2,34 L1,34 L1,36 L0,36 L0,37 L-1,37 L-1,39 L-2,39 L-2,40 L-3,40 L-3,41 L-4,41 L-4,42 L-5,42 L-5,43 L-6,43 L-6,44 L-7,44 L-7,45 L-8,45 L-8,46 L-9,46 L-9,47 L-12,47 L-12,45 L-11,45 L-11,43 L-7,43 L-7,40 L-8,40 L-8,38 L-7,38 L-7,39 L-5,39 L-5,38 L-6,38 L-6,34 L-4,34 L-4,33 L-3,33 L-3,32 L-4,32 L-4,29 L-5,29 L-5,26 L-3,26 L-3,27 L-2,27 L-2,32 L-1,32 L-1,31 L0,31 L0,29 L1,29 L1,27 L2,27 L2,26 L3,26 L3,12 L1,12 L1,4 L0,4 Z " fill="#FBC52C" transform="translate(139,19)"/>
<path d="M0,0 L5,0 L5,4 L6,4 L6,3 L7,3 L7,9 L6,9 L6,10 L8,10 L8,12 L9,12 L9,10 L10,10 L10,11 L13,11 L13,10 L14,10 L14,11 L16,11 L16,18 L15,18 L15,20 L14,20 L14,21 L7,21 L7,19 L6,19 L6,17 L5,17 L5,15 L4,15 L4,13 L3,13 L3,10 L4,10 L4,7 L5,7 L5,5 L1,5 L1,2 L0,2 Z " fill="#2C807F" transform="translate(276,72)"/>
<path d="M0,0 L9,0 L9,2 L10,2 L10,5 L11,5 L11,7 L9,7 L9,10 L11,10 L11,14 L12,14 L12,15 L16,15 L16,16 L17,16 L17,18 L16,18 L16,20 L15,20 L15,21 L11,21 L11,18 L10,18 L10,17 L8,17 L8,16 L7,16 L7,14 L6,14 L6,12 L5,12 L5,10 L4,10 L4,8 L3,8 L3,7 L2,7 L2,5 L1,5 L1,3 L0,3 Z " fill="#308382" transform="translate(101,70)"/>
<path d="M0,0 L2,0 L2,4 L1,4 L1,6 L0,6 L0,22 L1,22 L1,24 L3,24 L3,25 L4,25 L4,29 L6,29 L6,31 L7,31 L7,33 L8,33 L8,34 L9,34 L9,37 L10,37 L10,38 L11,38 L11,39 L12,39 L12,40 L13,40 L13,41 L14,41 L14,42 L15,42 L15,43 L16,43 L16,44 L14,44 L14,43 L13,43 L13,42 L12,42 L12,41 L9,41 L9,40 L8,40 L8,39 L7,39 L7,38 L6,38 L6,35 L4,35 L4,33 L3,33 L3,32 L1,32 L1,30 L0,30 L0,29 L-1,29 L-1,22 L-2,22 L-2,21 L-3,21 L-3,7 L-2,7 L-2,6 L-1,6 L-1,5 L0,5 Z " fill="#C2D4B7" transform="translate(71,23)"/>
<path d="M0,0 L17,0 L17,11 L16,11 L16,8 L15,8 L15,9 L14,9 L14,10 L12,10 L12,11 L9,11 L9,12 L2,12 L2,11 L-1,11 L-1,10 L-3,10 L-3,9 L1,9 L1,6 L3,6 L3,5 L1,5 L1,3 L0,3 Z M1,1 L1,3 L2,3 L2,4 L4,4 L4,5 L8,5 L8,4 L10,4 L10,3 L14,3 L14,4 L16,4 L16,1 Z " fill="#75AAA8" transform="translate(240,82)"/>
<path d="M0,0 L6,0 L6,1 L7,1 L7,2 L8,2 L8,5 L9,5 L9,6 L8,6 L8,9 L7,9 L7,10 L5,10 L5,11 L1,11 L1,10 L-1,10 L-1,9 L-2,9 L-2,7 L-4,7 L-4,8 L-5,8 L-5,9 L-7,9 L-7,10 L-10,10 L-10,11 L-18,11 L-18,10 L-11,10 L-11,9 L-8,9 L-8,7 L-6,7 L-6,4 L-11,4 L-11,3 L-9,3 L-9,2 L-6,2 L-6,3 L-4,3 L-4,4 L-2,4 L-2,2 L-1,2 L-1,1 L0,1 Z " fill="#2B817F" transform="translate(369,83)"/>
<path d="M0,0 L15,0 L15,1 L2,1 L2,2 L6,2 L6,4 L8,4 L8,6 L7,6 L7,7 L6,7 L6,9 L5,9 L5,10 L4,10 L4,12 L3,12 L3,14 L2,14 L2,16 L1,16 L1,18 L0,18 L0,16 L-1,16 L-1,14 L-2,14 L-2,11 L-4,11 L-4,12 L-5,12 L-5,10 L-4,10 L-4,7 L-3,7 L-3,5 L-2,5 L-2,3 L-1,3 L-1,1 L0,1 Z " fill="#619D9B" transform="translate(309,69)"/>
<path d="M0,0 L1,0 L1,3 L3,3 L3,4 L1,4 L1,6 L-1,6 L-1,7 L-2,7 L-2,10 L-3,10 L-3,13 L-4,13 L-4,25 L-3,25 L-3,26 L-2,26 L-2,31 L-1,31 L-1,33 L-3,33 L-3,29 L-4,29 L-4,28 L-6,28 L-6,26 L-7,26 L-7,10 L-6,10 L-6,8 L-5,8 L-5,4 L-4,4 L-4,3 L-3,3 L-3,2 L-2,2 L-2,1 L0,1 Z " fill="#E7C34E" transform="translate(78,19)"/>
<path d="M0,0 L8,0 L8,1 L10,1 L10,2 L12,2 L12,3 L13,3 L13,5 L12,5 L12,7 L11,7 L11,4 L10,4 L10,7 L9,7 L9,6 L7,6 L7,5 L6,5 L6,4 L7,4 L7,2 L5,2 L5,3 L3,3 L3,2 L1,2 L1,4 L4,4 L4,5 L5,5 L5,6 L6,6 L6,23 L13,23 L13,15 L14,15 L14,17 L17,17 L17,19 L16,19 L16,20 L15,20 L15,19 L14,19 L14,24 L5,24 L5,8 L4,8 L4,7 L-1,7 L-1,8 L-2,8 L-2,9 L-3,9 L-3,6 L-1,6 L-1,5 L0,5 Z " fill="#649A95" transform="translate(219,69)"/>
<path d="M0,0 L6,0 L6,1 L4,1 L4,2 L2,2 L2,3 L-1,3 L-1,4 L-83,4 L-83,3 L-6,3 L-6,1 L0,1 Z " fill="#CEE5E1" transform="translate(105,90)"/>
<path d="M0,0 L2,0 L2,1 L3,1 L3,9 L2,9 L2,11 L1,11 L1,13 L-6,13 L-6,11 L-7,11 L-7,9 L-8,9 L-8,6 L-7,6 L-7,5 L-6,5 L-6,2 L-5,2 L-5,3 L-1,3 L-1,2 L0,2 Z " fill="#28817F" transform="translate(134,80)"/>
<path d="M0,0 L2,0 L2,3 L3,3 L3,5 L4,5 L4,9 L3,9 L3,10 L2,10 L2,12 L1,12 L1,13 L-5,13 L-5,12 L-6,12 L-6,4 L-7,4 L-7,3 L-5,3 L-5,2 L-2,2 L-2,3 L-1,3 L-1,1 L0,1 Z " fill="#2D7E7E" transform="translate(305,80)"/>
<path d="M0,0 L8,0 L8,2 L10,2 L10,3 L9,3 L9,4 L11,4 L11,5 L9,5 L9,6 L8,6 L8,7 L7,7 L7,5 L4,5 L4,7 L3,7 L3,6 L1,6 L1,8 L2,8 L2,9 L3,9 L3,10 L2,10 L2,12 L0,12 L0,11 L-3,11 L-3,10 L-4,10 L-4,4 L-5,4 L-5,2 L-3,2 L-3,3 L-2,3 L-2,4 L-1,4 L-1,1 L0,1 Z " fill="#4E9190" transform="translate(257,69)"/>
<path d="M0,0 L7,0 L7,15 L5,15 L5,14 L4,14 L4,13 L1,13 L1,15 L0,15 Z " fill="#387C79" transform="translate(208,54)"/>
<path d="M0,0 L1,0 L1,1 L5,1 L5,17 L4,17 L4,18 L5,18 L5,19 L6,19 L6,20 L0,20 Z " fill="#2C807E" transform="translate(317,72)"/>
<path d="M0,0 L9,0 L9,3 L10,3 L10,2 L12,2 L12,1 L14,1 L14,0 L24,0 L24,1 L26,1 L26,2 L21,2 L21,1 L19,1 L19,2 L18,2 L18,1 L16,1 L16,2 L17,2 L17,3 L20,3 L20,4 L22,4 L22,5 L23,5 L23,9 L22,9 L22,7 L21,7 L21,6 L16,6 L16,7 L15,7 L15,9 L14,9 L14,8 L13,8 L13,9 L11,9 L11,5 L8,5 L8,6 L7,6 L7,1 L0,1 Z M8,3 L8,4 L9,4 L9,3 Z " fill="#52928E" transform="translate(137,69)"/>
<path d="M0,0 L1,0 L1,1 L2,1 L2,2 L3,2 L3,3 L5,3 L5,1 L6,1 L6,0 L8,0 L8,1 L7,1 L7,2 L9,2 L9,1 L10,1 L10,5 L13,5 L13,4 L14,4 L14,3 L19,3 L19,4 L20,4 L20,6 L18,6 L18,5 L15,5 L15,6 L13,6 L13,7 L12,7 L12,13 L11,13 L11,7 L9,7 L9,11 L7,11 L7,10 L5,10 L5,9 L3,9 L3,8 L4,8 L4,6 L1,6 L1,2 L0,2 Z " fill="#388686" transform="translate(163,71)"/>
<path d="M0,0 L10,0 L10,1 L12,1 L12,2 L11,2 L11,3 L10,3 L10,2 L6,2 L6,3 L7,3 L7,4 L9,4 L9,7 L8,7 L8,6 L2,6 L2,7 L1,7 L1,9 L0,9 L0,6 L-1,6 L-1,5 L-3,5 L-3,8 L-7,8 L-7,9 L-6,9 L-6,10 L-8,10 L-8,5 L-7,5 L-7,6 L-6,6 L-6,4 L-5,4 L-5,3 L-3,3 L-3,2 L-2,2 L-2,1 L0,1 Z " fill="#2B807E" transform="translate(240,69)"/>
<path d="M0,0 L5,0 L5,1 L6,1 L6,2 L7,2 L7,8 L6,8 L6,9 L5,9 L5,10 L0,10 L0,9 L-2,9 L-2,7 L-3,7 L-3,3 L-2,3 L-2,1 L0,1 Z " fill="#84ABAA" transform="translate(318,55)"/>
<path d="M0,0 L1,0 L1,9 L2,9 L2,7 L3,7 L3,13 L4,13 L4,14 L6,14 L6,16 L7,16 L7,15 L19,15 L19,13 L20,13 L20,3 L21,3 L21,17 L12,17 L12,18 L6,18 L6,17 L4,17 L4,16 L2,16 L2,14 L1,14 L1,11 L0,11 Z " fill="#609893" transform="translate(195,76)"/>
<path d="M0,0 L2,0 L2,1 L1,1 L1,3 L0,3 L0,4 L-1,4 L-1,5 L-3,5 L-3,6 L-4,6 L-4,7 L-3,7 L-3,8 L-4,8 L-4,9 L-5,9 L-5,11 L-4,11 L-4,12 L-6,12 L-6,11 L-9,11 L-9,14 L-10,14 L-10,18 L-11,18 L-11,30 L-10,30 L-10,31 L-11,31 L-11,33 L-12,33 L-12,29 L-13,29 L-13,18 L-12,18 L-12,15 L-11,15 L-11,12 L-10,12 L-10,10 L-9,10 L-9,9 L-8,9 L-8,7 L-7,7 L-7,6 L-6,6 L-6,5 L-5,5 L-5,4 L-4,4 L-4,3 L-3,3 L-3,2 L-1,2 L-1,1 L0,1 Z " fill="#CBE6E4" transform="translate(13,43)"/>
<path d="M0,0 L1,0 L1,1 L2,1 L2,2 L12,2 L12,5 L10,5 L10,7 L7,7 L7,8 L-2,8 L-2,7 L-4,7 L-4,6 L-5,6 L-5,5 L-6,5 L-6,4 L-4,4 L-4,2 L-2,2 L-2,3 L-1,3 L-1,4 L-2,4 L-2,6 L2,6 L2,5 L3,5 L3,3 L0,3 Z " fill="#3D8786" transform="translate(351,85)"/>
<path d="M0,0 L4,0 L4,1 L6,1 L6,2 L7,2 L7,3 L8,3 L8,4 L9,4 L9,5 L10,5 L10,6 L11,6 L11,7 L12,7 L12,8 L13,8 L13,9 L14,9 L14,11 L15,11 L15,13 L13,13 L13,12 L12,12 L12,11 L11,11 L11,9 L9,9 L9,8 L6,8 L6,9 L5,9 L5,8 L4,8 L4,7 L1,7 L1,1 L0,1 Z " fill="#FAC119" transform="translate(124,6)"/>
<path d="M0,0 L1,0 L1,2 L2,2 L2,4 L3,4 L3,6 L4,6 L4,10 L5,10 L5,17 L6,17 L6,19 L5,19 L5,26 L4,26 L4,30 L3,30 L3,32 L2,32 L2,26 L3,26 L3,12 L1,12 L1,4 L0,4 Z " fill="#F9DA8A" transform="translate(139,19)"/>
<path d="M0,0 L6,0 L6,4 L7,4 L7,5 L6,5 L6,6 L5,6 L5,8 L1,8 L1,14 L0,14 L0,15 L-1,15 L-1,13 L0,13 L0,12 L-1,12 L-1,11 L-2,11 L-2,8 L-1,8 L-1,6 L0,6 L0,7 L1,7 L1,5 L-2,5 L-2,2 L-1,2 L-1,1 L0,1 Z " fill="#2D807E" transform="translate(120,72)"/>
<path d="M0,0 L3,0 L3,4 L5,4 L5,7 L4,7 L4,8 L3,8 L3,10 L2,10 L2,11 L1,11 L1,14 L-1,14 L-1,13 L-2,13 L-2,4 L-1,4 L-1,1 L0,1 Z " fill="#3F8686" transform="translate(145,74)"/>
<path d="M0,0 L3,0 L3,3 L1,3 L1,5 L0,5 L0,6 L-2,6 L-2,7 L-5,7 L-5,8 L-13,8 L-13,7 L-16,7 L-16,6 L-13,6 L-13,5 L-12,5 L-12,1 L-7,1 L-7,2 L-10,2 L-10,5 L-11,5 L-11,6 L-12,6 L-12,7 L-8,7 L-8,6 L-6,6 L-6,4 L-5,4 L-5,2 L-1,2 L-1,3 L0,3 Z " fill="#669F9C" transform="translate(342,86)"/>
<path d="M0,0 L2,0 L2,2 L3,2 L3,9 L2,9 L2,11 L1,11 L1,10 L-7,10 L-7,11 L-6,11 L-6,15 L-5,15 L-5,16 L-3,16 L-3,17 L-9,17 L-9,16 L-12,16 L-12,15 L-13,15 L-13,14 L-10,14 L-10,13 L-9,13 L-9,10 L-8,10 L-8,7 L-7,7 L-7,8 L-6,8 L-6,9 L-1,9 L-1,8 L1,8 L1,5 L2,5 L2,3 L1,3 L1,1 L0,1 Z " fill="#83AFAD" transform="translate(183,77)"/>
<path d="M0,0 L3,0 L3,4 L2,4 L2,6 L3,6 L3,7 L8,7 L8,1 L9,1 L9,6 L10,6 L10,7 L9,7 L9,8 L-7,8 L-7,10 L-8,10 L-8,7 L-1,7 L-1,6 L-2,6 L-2,5 L-4,5 L-4,4 L-9,4 L-9,2 L-8,2 L-8,1 L-7,1 L-7,3 L1,3 L1,2 L0,2 Z " fill="#79A7A5" transform="translate(358,75)"/>
<path d="M0,0 L1,0 L1,1 L2,1 L2,5 L4,5 L4,7 L5,7 L5,9 L6,9 L6,10 L7,10 L7,13 L8,13 L8,14 L9,14 L9,15 L10,15 L10,16 L11,16 L11,17 L12,17 L12,18 L13,18 L13,19 L14,19 L14,20 L12,20 L12,19 L11,19 L11,18 L10,18 L10,17 L7,17 L7,16 L6,16 L6,15 L5,15 L5,14 L4,14 L4,11 L2,11 L2,9 L1,9 L1,8 L0,8 Z " fill="#D1CA86" transform="translate(73,47)"/>
<path d="M0,0 L1,0 L1,2 L2,2 L2,4 L3,4 L3,6 L4,6 L4,8 L3,8 L3,7 L0,7 L0,8 L-2,8 L-2,9 L-1,9 L-1,15 L-2,15 L-2,13 L-3,13 L-3,10 L-4,10 L-4,8 L-6,8 L-6,10 L-7,10 L-7,12 L-8,12 L-8,8 L-10,8 L-10,7 L-6,7 L-6,6 L-5,6 L-5,5 L-4,5 L-4,3 L-2,3 L-2,4 L-1,4 L-1,6 L0,6 Z " fill="#519291" transform="translate(300,75)"/>
<path d="M0,0 L1,0 L1,2 L3,2 L3,6 L4,6 L4,7 L8,7 L8,8 L9,8 L9,10 L8,10 L8,12 L7,12 L7,13 L3,13 L3,10 L2,10 L2,9 L0,9 L0,8 L-1,8 L-1,5 L0,5 L0,4 L-1,4 L-1,3 L0,3 Z " fill="#2B817E" transform="translate(109,78)"/>
<path d="M0,0 L3,0 L3,2 L4,2 L4,3 L5,3 L5,2 L6,2 L6,4 L7,4 L7,6 L6,6 L6,7 L8,7 L8,8 L9,8 L9,6 L10,6 L10,5 L11,5 L11,6 L12,6 L12,5 L13,5 L13,7 L12,7 L12,9 L11,9 L11,10 L4,10 L4,8 L3,8 L3,6 L2,6 L2,4 L1,4 L1,2 L0,2 Z " fill="#2C7E7A" transform="translate(279,83)"/>
<path d="M0,0 L1,0 L1,1 L2,1 L2,0 L3,0 L3,1 L4,1 L4,3 L5,3 L5,1 L8,1 L8,4 L6,4 L6,5 L7,5 L7,10 L6,10 L6,6 L5,6 L5,8 L4,8 L4,9 L3,9 L3,11 L2,11 L2,13 L1,13 L1,7 L0,7 L0,5 L1,5 L1,3 L0,3 Z " fill="#348283" transform="translate(136,74)"/>
<path d="M0,0 L11,0 L11,1 L13,1 L13,4 L12,4 L12,6 L11,6 L11,7 L8,7 L8,6 L3,6 L3,2 L10,2 L10,1 L0,1 Z " fill="#509291" transform="translate(330,69)"/>
<path d="M0,0 L1,0 L1,3 L16,3 L16,5 L15,5 L15,4 L1,4 L1,5 L2,5 L2,7 L1,7 L1,6 L0,6 L0,7 L-2,7 L-2,8 L-1,8 L-1,9 L-2,9 L-2,10 L-3,10 L-3,11 L-1,11 L-1,13 L-2,13 L-2,12 L-4,12 L-4,11 L-5,11 L-5,9 L-4,9 L-4,6 L-3,6 L-3,5 L-2,5 L-2,3 L-1,3 L-1,2 L0,2 Z " fill="#78ACAB" transform="translate(150,79)"/>
<path d="M0,0 L2,0 L2,1 L4,1 L4,2 L6,2 L6,3 L8,3 L8,4 L13,4 L13,7 L6,7 L6,6 L2,6 L2,5 L1,5 L1,4 L0,4 Z " fill="#C2D2B4" transform="translate(88,67)"/>
<path d="M0,0 L1,0 L1,1 L2,1 L2,3 L4,3 L4,6 L5,6 L5,7 L6,7 L6,8 L7,8 L7,9 L10,9 L10,10 L11,10 L11,11 L12,11 L12,12 L15,12 L15,16 L16,16 L16,17 L17,17 L17,18 L15,18 L15,17 L14,17 L14,16 L13,16 L13,15 L12,15 L12,14 L10,14 L10,13 L9,13 L9,11 L7,11 L7,10 L6,10 L6,9 L5,9 L5,8 L4,8 L4,7 L3,7 L3,5 L2,5 L2,4 L0,4 Z " fill="#BDD7C3" transform="translate(73,55)"/>
<path d="M0,0 L1,0 L1,17 L-7,17 L-7,16 L-9,16 L-9,17 L-11,17 L-11,14 L-6,14 L-6,12 L-5,12 L-5,13 L-3,13 L-3,15 L-1,15 L-1,16 L0,16 Z " fill="#54928D" transform="translate(192,76)"/>
<path d="M0,0 L3,0 L3,1 L4,1 L4,2 L6,2 L6,0 L8,0 L8,1 L9,1 L9,3 L8,3 L8,4 L7,4 L7,6 L6,6 L6,7 L0,7 L0,6 L-1,6 L-1,4 L1,4 L1,1 L0,1 Z " fill="#478988" transform="translate(300,86)"/>
<path d="M0,0 L4,0 L4,1 L3,1 L3,2 L2,2 L2,4 L1,4 L1,5 L-2,5 L-2,6 L-3,6 L-3,7 L-4,7 L-4,8 L-5,8 L-5,9 L-6,9 L-6,10 L-7,10 L-7,12 L-8,12 L-8,13 L-9,13 L-9,9 L-8,9 L-8,8 L-7,8 L-7,6 L-6,6 L-6,5 L-5,5 L-5,4 L-4,4 L-4,3 L-3,3 L-3,2 L-1,2 L-1,1 L0,1 Z " fill="#F9D985" transform="translate(86,7)"/>
<path d="M0,0 L6,0 L6,1 L7,1 L7,0 L9,0 L9,1 L12,1 L12,3 L13,3 L13,4 L11,4 L11,5 L10,5 L10,4 L8,4 L8,6 L6,6 L6,5 L3,5 L3,2 L1,2 L1,1 L0,1 Z " fill="#2D7F84" transform="translate(327,79)"/>
<path d="M0,0 L1,0 L1,2 L0,2 L0,3 L-1,3 L-1,4 L-2,4 L-2,5 L-9,5 L-9,6 L-18,6 L-18,7 L-26,7 L-26,6 L-23,6 L-23,5 L-19,5 L-19,4 L-3,4 L-3,3 L-2,3 L-2,2 L-1,2 L-1,1 L0,1 Z " fill="#D6E8E0" transform="translate(76,18)"/>
<path d="M0,0 L3,0 L3,1 L5,1 L5,2 L7,2 L7,4 L9,4 L9,5 L8,5 L8,7 L7,7 L7,5 L5,5 L5,6 L4,6 L4,7 L2,7 L2,8 L-1,8 L-1,9 L-9,9 L-9,8 L-2,8 L-2,7 L1,7 L1,5 L3,5 L3,2 L-2,2 L-2,1 L0,1 Z " fill="#8BB1AD" transform="translate(360,85)"/>
<path d="M0,0 L3,0 L3,2 L4,2 L4,5 L5,5 L5,3 L6,3 L6,9 L5,9 L5,7 L4,7 L4,6 L2,6 L2,8 L-1,8 L-1,7 L-2,7 L-2,6 L-3,6 L-3,4 L-2,4 L-2,3 L0,3 Z " fill="#2A807F" transform="translate(294,72)"/>
<path d="M0,0 L7,0 L7,1 L8,1 L8,3 L9,3 L9,4 L4,4 L4,5 L3,5 L3,6 L0,6 L0,2 L-1,2 L-1,3 L-3,3 L-3,2 L-2,2 L-2,1 L0,1 Z " fill="#2A807C" transform="translate(173,70)"/>
<path d="M0,0 L10,0 L10,1 L12,1 L12,2 L11,2 L11,3 L10,3 L10,2 L6,2 L6,3 L7,3 L7,4 L9,4 L9,7 L8,7 L8,6 L2,6 L2,7 L1,7 L1,9 L0,9 L0,6 L-1,6 L-1,5 L2,5 L2,4 L5,4 L5,1 L0,1 Z " fill="#699E9B" transform="translate(240,69)"/>
<path d="M0,0 L1,0 L1,2 L2,2 L2,3 L3,3 L3,2 L4,2 L4,4 L3,4 L3,5 L2,5 L2,6 L1,6 L1,7 L0,7 L0,8 L-1,8 L-1,9 L-2,9 L-2,10 L-3,10 L-3,11 L-4,11 L-4,12 L-7,12 L-7,10 L-6,10 L-6,8 L-2,8 L-2,5 L-3,5 L-3,3 L-2,3 L-2,4 L0,4 L0,3 L-1,3 L-1,1 L0,1 Z " fill="#FAC942" transform="translate(134,54)"/>
<path d="M0,0 L1,0 L1,3 L0,3 L0,5 L-1,5 L-1,8 L-2,8 L-2,10 L-4,10 L-4,8 L-5,8 L-5,6 L-6,6 L-6,4 L-7,4 L-7,2 L-2,2 L-2,1 L0,1 Z " fill="#BAD1B7" transform="translate(118,71)"/>
<path d="M0,0 L1,0 L1,1 L9,1 L9,2 L6,2 L6,3 L7,3 L7,4 L17,4 L17,9 L16,9 L16,5 L1,5 L1,2 L0,2 Z " fill="#3B7E79" transform="translate(150,77)"/>
<path d="M0,0 L3,0 L3,10 L2,10 L2,9 L1,9 L1,8 L-2,8 L-2,2 L-1,2 L-1,1 L0,1 Z " fill="#288180" transform="translate(211,59)"/>
<path d="M0,0 L9,0 L9,3 L10,3 L10,2 L12,2 L12,5 L13,5 L13,6 L16,6 L16,7 L15,7 L15,9 L14,9 L14,8 L13,8 L13,9 L11,9 L11,5 L8,5 L8,6 L7,6 L7,1 L0,1 Z M8,3 L8,4 L9,4 L9,3 Z " fill="#88B3B1" transform="translate(137,69)"/>
<path d="M0,0 L1,0 L1,2 L0,2 L0,6 L-14,6 L-14,8 L-15,8 L-15,7 L-18,7 L-18,6 L-16,6 L-16,5 L-12,5 L-12,4 L-2,4 L-2,3 L-1,3 L-1,1 L0,1 Z " fill="#CCE6E5" transform="translate(34,36)"/>
<path d="M0,0 L4,0 L4,5 L3,5 L3,6 L2,6 L2,7 L1,7 L1,21 L2,21 L2,22 L3,22 L3,24 L2,24 L2,23 L1,23 L1,22 L0,22 L0,5 L1,5 L1,2 L2,2 L2,1 L0,1 Z " fill="#B7DBD1" transform="translate(67,23)"/>
<path d="M0,0 L1,0 L1,14 L8,14 L8,6 L9,6 L9,8 L12,8 L12,10 L11,10 L11,11 L10,11 L10,10 L9,10 L9,15 L0,15 Z " fill="#9FC1BE" transform="translate(224,78)"/>
<path d="M0,0 L1,0 L1,10 L-2,10 L-2,9 L-3,9 L-3,3 L-4,3 L-4,1 L-2,1 L-2,2 L-1,2 L-1,3 L0,3 Z " fill="#6AA1A0" transform="translate(256,70)"/>
<path d="M0,0 L2,0 L2,1 L3,1 L3,2 L6,2 L6,3 L8,3 L8,1 L12,1 L12,4 L10,4 L10,5 L11,5 L11,6 L7,6 L7,5 L4,5 L4,4 L3,4 L3,3 L2,3 L2,2 L1,2 L1,1 L0,1 Z " fill="#F3C026" transform="translate(83,62)"/>
<path d="M0,0 L1,0 L1,1 L2,1 L2,0 L3,0 L3,2 L2,2 L2,4 L1,4 L1,6 L0,6 L0,7 L-6,7 L-6,6 L-7,6 L-7,3 L-8,3 L-8,2 L-9,2 L-9,1 L-7,1 L-7,2 L-6,2 L-6,5 L-2,5 L-2,4 L-1,4 L-1,2 L0,2 Z " fill="#508C87" transform="translate(118,86)"/>
<path d="M0,0 L6,0 L6,1 L7,1 L7,0 L8,0 L8,2 L12,2 L12,4 L11,4 L11,7 L10,7 L10,8 L9,8 L9,6 L8,6 L8,4 L7,4 L7,3 L6,3 L6,2 L2,2 L2,1 L0,1 Z " fill="#619996" transform="translate(269,75)"/>
<path d="M0,0 L2,0 L2,3 L1,3 L1,4 L-2,4 L-2,5 L-3,5 L-3,6 L-4,6 L-4,9 L-9,9 L-9,8 L-8,8 L-8,7 L-7,7 L-7,6 L-6,6 L-6,5 L-5,5 L-5,4 L-4,4 L-4,3 L-3,3 L-3,2 L-1,2 L-1,1 L0,1 Z " fill="#C2E3E0" transform="translate(44,27)"/>
<path d="M0,0 L4,0 L4,2 L5,2 L5,1 L7,1 L7,5 L2,5 L2,7 L1,7 L1,6 L0,6 L0,5 L1,5 L1,4 L0,4 L0,3 L1,3 L1,2 L0,2 Z " fill="#2E7D7C" transform="translate(317,57)"/>
<path d="M0,0 L1,0 L1,1 L3,1 L3,5 L4,5 L4,6 L6,6 L6,7 L0,7 L0,6 L-3,6 L-3,5 L-4,5 L-4,4 L-1,4 L-1,3 L0,3 Z " fill="#4E8F91" transform="translate(174,87)"/>
<path d="M0,0 L2,0 L2,1 L3,1 L3,7 L2,7 L2,6 L1,6 L1,7 L-1,7 L-1,6 L-2,6 L-2,5 L-4,5 L-4,3 L-1,3 L-1,2 L0,2 Z " fill="#2A817D" transform="translate(134,80)"/>
<path d="M0,0 L6,0 L6,1 L8,1 L8,2 L9,2 L9,4 L8,4 L8,6 L7,6 L7,3 L6,3 L6,6 L5,6 L5,5 L3,5 L3,4 L2,4 L2,3 L3,3 L3,1 L1,1 L1,2 L-1,2 L-1,1 L0,1 Z " fill="#338482" transform="translate(223,70)"/>
<path d="M0,0 L7,0 L7,5 L4,5 L4,7 L3,7 L3,5 L2,5 L2,4 L1,4 L1,2 L2,2 L2,1 L0,1 Z " fill="#32817F" transform="translate(137,70)"/>
<path d="M0,0 L6,0 L6,1 L7,1 L7,4 L8,4 L8,6 L7,6 L7,8 L6,8 L6,5 L5,5 L5,2 L1,2 L1,3 L0,3 L0,5 L-2,5 L-2,3 L-1,3 L-1,1 L0,1 Z " fill="#8EB1B0" transform="translate(292,69)"/>
<path d="M0,0 L13,0 L13,1 L14,1 L14,3 L15,3 L15,6 L14,6 L14,7 L13,7 L13,3 L12,3 L12,2 L10,2 L10,1 L6,1 L6,2 L3,2 L3,1 L1,1 L1,2 L-1,2 L-1,1 L0,1 Z " fill="#81A9A6" transform="translate(268,69)"/>
<path d="M0,0 L1,0 L1,15 L2,15 L2,16 L3,16 L3,21 L4,21 L4,23 L2,23 L2,19 L1,19 L1,18 L0,18 Z " fill="#EDC22A" transform="translate(73,29)"/>
<path d="M0,0 L2,0 L2,1 L4,1 L4,2 L5,2 L5,3 L6,3 L6,4 L7,4 L7,5 L8,5 L8,6 L9,6 L9,7 L4,7 L4,6 L3,6 L3,5 L0,5 L0,4 L1,4 L1,1 L0,1 Z " fill="#FBD164" transform="translate(126,6)"/>
<path d="M0,0 L1,0 L1,2 L3,2 L3,3 L4,3 L4,1 L5,1 L5,7 L0,7 L0,6 L-1,6 L-1,4 L0,4 Z " fill="#2F7F7C" transform="translate(361,75)"/>
<path d="M0,0 L1,0 L1,1 L2,1 L2,4 L3,4 L3,5 L2,5 L2,8 L1,8 L1,9 L-1,9 L-1,10 L-5,10 L-5,9 L-7,9 L-7,8 L0,8 Z " fill="#87ABA9" transform="translate(375,84)"/>
<path d="M0,0 L2,0 L2,1 L1,1 L1,4 L2,4 L2,5 L-1,5 L-1,4 L-2,4 L-2,3 L-4,3 L-4,4 L-6,4 L-6,5 L-4,5 L-4,6 L-8,6 L-8,2 L0,2 Z " fill="#42807E" transform="translate(249,76)"/>
<path d="M0,0 L1,0 L1,2 L0,2 L0,5 L-1,5 L-1,7 L0,7 L0,8 L-1,8 L-1,9 L-5,9 L-5,10 L-6,10 L-6,8 L-9,8 L-9,6 L-7,6 L-7,7 L-5,7 L-5,8 L-3,8 L-3,4 L-2,4 L-2,3 L-1,3 L-1,1 L0,1 Z " fill="#6EA09C" transform="translate(345,72)"/>
<path d="M0,0 L3,0 L3,1 L10,1 L10,0 L11,0 L11,2 L12,2 L12,3 L9,3 L9,4 L5,4 L5,3 L3,3 L3,2 L0,2 Z " fill="#B7DACB" transform="translate(91,73)"/>
<path d="M0,0 L5,0 L5,1 L6,1 L6,3 L4,3 L4,2 L1,2 L1,3 L-1,3 L-1,4 L-2,4 L-2,10 L-3,10 L-3,4 L-4,4 L-4,2 L-1,2 L-1,1 L0,1 Z " fill="#669998" transform="translate(177,74)"/>
<path d="M0,0 L3,0 L3,1 L2,1 L2,2 L4,2 L4,4 L3,4 L3,5 L-4,5 L-4,4 L-6,4 L-6,3 L-1,3 L-1,2 L0,2 Z " fill="#2F817C" transform="translate(158,88)"/>
<path d="M0,0 L1,0 L1,2 L2,2 L2,4 L3,4 L3,6 L4,6 L4,9 L3,9 L3,12 L1,12 L1,4 L0,4 Z " fill="#FAD269" transform="translate(139,19)"/>
<path d="M0,0 L1,0 L1,9 L2,9 L2,7 L3,7 L3,13 L4,13 L4,14 L1,14 L1,11 L0,11 Z " fill="#8DB5B2" transform="translate(195,76)"/>
<path d="M0,0 L1,0 L1,2 L0,2 L0,3 L-1,3 L-1,5 L-2,5 L-2,6 L-3,6 L-3,8 L-4,8 L-4,10 L-5,10 L-5,12 L-6,12 L-6,7 L-5,7 L-5,5 L-3,5 L-3,2 L-1,2 L-1,1 L0,1 Z " fill="#70A39E" transform="translate(316,73)"/>
<path d="M0,0 L3,0 L3,2 L2,2 L2,5 L-2,5 L-2,6 L-1,6 L-1,7 L-3,7 L-3,2 L-2,2 L-2,3 L-1,3 L-1,1 L0,1 Z " fill="#639F9C" transform="translate(235,72)"/>
<path d="M0,0 L10,0 L10,1 L13,1 L13,3 L11,3 L11,5 L10,5 L10,4 L9,4 L9,2 L8,2 L8,1 L1,1 L1,2 L-1,2 L-1,1 L0,1 Z " fill="#7DABA7" transform="translate(172,69)"/>
<path d="M0,0 L9,0 L9,2 L10,2 L10,5 L11,5 L11,7 L9,7 L9,8 L8,8 L8,1 L0,1 Z " fill="#4A8060" transform="translate(101,70)"/>
<path d="M0,0 L2,0 L2,1 L1,1 L1,2 L4,2 L4,4 L9,4 L9,5 L4,5 L4,6 L3,6 L3,5 L1,5 L1,3 L0,3 L0,4 L-1,4 L-1,2 L-2,2 L-2,1 L0,1 Z " fill="#6BA7A3" transform="translate(348,70)"/>
<path d="M0,0 L2,0 L2,1 L4,1 L4,2 L6,2 L6,3 L8,3 L8,4 L13,4 L13,5 L12,5 L12,6 L11,6 L11,5 L5,5 L5,4 L4,4 L4,3 L2,3 L2,2 L0,2 Z " fill="#D1C77D" transform="translate(88,67)"/>
<path d="M0,0 L1,0 L1,1 L2,1 L2,7 L1,7 L1,8 L0,8 L0,9 L-5,9 L-5,8 L-4,8 L-4,6 L1,6 L1,2 L0,2 Z " fill="#89B3AE" transform="translate(323,56)"/>
<path d="M0,0 L1,0 L1,2 L3,2 L3,3 L1,3 L1,6 L-3,6 L-3,2 L-2,2 L-2,1 L0,1 Z " fill="#2D7E7A" transform="translate(240,85)"/>
<path d="M0,0 L3,0 L3,3 L2,3 L2,4 L1,4 L1,6 L0,6 L0,7 L-1,7 L-1,6 L-2,6 L-2,3 L-1,3 L-1,1 L0,1 Z " fill="#258280" transform="translate(147,78)"/>
<path d="M0,0 L10,0 L10,1 L3,1 L3,5 L1,5 L1,3 L-1,3 L-1,1 L0,1 Z " fill="#2C807B" transform="translate(330,70)"/>
<path d="M0,0 L1,0 L1,1 L2,1 L2,3 L1,3 L1,5 L0,5 L0,7 L-7,7 L-7,6 L-1,6 L-1,3 L-2,3 L-2,1 L0,1 Z " fill="#689A99" transform="translate(135,86)"/>
<path d="M0,0 L1,0 L1,3 L0,3 L0,5 L-1,5 L-1,6 L-4,6 L-4,5 L-8,5 L-8,4 L-5,4 L-5,3 L-1,3 L-1,1 L0,1 Z " fill="#7CA5A4" transform="translate(342,70)"/>
<path d="M0,0 L3,0 L3,2 L2,2 L2,4 L1,4 L1,5 L-1,5 L-1,6 L-3,6 L-3,4 L-4,4 L-4,3 L0,3 Z " fill="#54918D" transform="translate(253,87)"/>
<path d="M0,0 L1,0 L1,2 L2,2 L2,4 L3,4 L3,6 L4,6 L4,8 L3,8 L3,7 L2,7 L2,9 L1,9 L1,7 L-1,7 L-1,6 L0,6 Z " fill="#5D9998" transform="translate(283,75)"/>
<path d="M0,0 L5,0 L5,3 L4,3 L4,5 L3,5 L3,3 L1,3 L1,6 L0,6 Z " fill="#6CA2A0" transform="translate(121,80)"/>
<path d="M0,0 L2,0 L2,2 L0,2 L0,4 L4,4 L4,5 L0,5 L0,6 L-3,6 L-3,4 L-1,4 L-1,3 L-3,3 L-3,2 L-2,2 L-2,1 L0,1 Z " fill="#347C79" transform="translate(269,70)"/>
<path d="M0,0 L8,0 L8,1 L6,1 L6,3 L5,3 L5,2 L4,2 L4,3 L3,3 L3,4 L1,4 L1,2 L0,2 Z " fill="#3A8074" transform="translate(101,71)"/>
<path d="M0,0 L2,0 L2,4 L1,4 L1,5 L-2,5 L-2,4 L-4,4 L-4,3 L-2,3 L-2,1 L0,1 Z " fill="#2B8079" transform="translate(328,87)"/>
<path d="M0,0 L1,0 L1,1 L2,1 L2,4 L0,4 L0,5 L1,5 L1,7 L-1,7 L-1,5 L-3,5 L-3,4 L-2,4 L-2,3 L-1,3 L-1,2 L-2,2 L-2,1 L0,1 Z " fill="#2E7D7B" transform="translate(150,85)"/>
<path d="M0,0 L5,0 L5,8 L3,8 L3,7 L4,7 L4,3 L3,3 L3,2 L1,2 L1,3 L0,3 Z " fill="#357C78" transform="translate(370,84)"/>
<path d="M0,0 L2,0 L2,1 L5,1 L5,2 L3,2 L3,3 L2,3 L2,5 L-4,5 L-4,4 L-1,4 L-1,3 L0,3 Z " fill="#E3CB6E" transform="translate(124,65)"/>
<path d="M0,0 L3,0 L3,4 L4,4 L4,7 L5,7 L5,8 L6,8 L6,10 L5,10 L5,9 L4,9 L4,8 L3,8 L3,5 L2,5 L2,4 L1,4 L1,2 L0,2 Z " fill="#F2C027" transform="translate(77,52)"/>
<path d="M0,0 L2,0 L2,1 L3,1 L3,3 L4,3 L4,4 L7,4 L7,2 L8,2 L8,5 L2,5 L2,4 L1,4 L1,2 L0,2 Z " fill="#357E79" transform="translate(126,87)"/>
<path d="M0,0 L1,0 L1,1 L2,1 L2,0 L3,0 L3,2 L2,2 L2,4 L1,4 L1,5 L-6,5 L-6,3 L-5,3 L-5,4 L0,4 L0,2 L-1,2 L-1,1 L0,1 Z " fill="#7DA8A7" transform="translate(289,88)"/>
<path d="M0,0 L6,0 L6,1 L1,1 L1,4 L2,4 L2,7 L1,7 L1,5 L0,5 L0,4 L-2,4 L-2,2 L-1,2 L-1,1 L0,1 Z " fill="#7FADAA" transform="translate(369,83)"/>
<path d="M0,0 L3,0 L3,1 L4,1 L4,2 L3,2 L3,4 L2,4 L2,5 L4,5 L4,6 L-1,6 L-1,4 L1,4 L1,1 L0,1 Z " fill="#3D898A" transform="translate(300,86)"/>
<path d="M0,0 L4,0 L4,1 L3,1 L3,2 L2,2 L2,4 L1,4 L1,5 L-2,5 L-2,3 L-1,3 L-1,1 L0,1 Z " fill="#F8CA4B" transform="translate(86,7)"/>
<path d="M0,0 L1,0 L1,4 L-1,4 L-1,5 L-2,5 L-2,9 L-3,9 L-3,8 L-4,8 L-4,6 L-3,6 L-3,3 L-2,3 L-2,2 L0,2 Z " fill="#3F8685" transform="translate(239,82)"/>
<path d="M0,0 L1,0 L1,2 L2,2 L2,4 L3,4 L3,6 L4,6 L4,8 L3,8 L3,7 L0,7 Z " fill="#72A8A4" transform="translate(300,75)"/>
<path d="M0,0 L6,0 L6,1 L7,1 L7,2 L6,2 L6,3 L5,3 L5,4 L3,4 L3,2 L1,2 L1,1 L0,1 Z " fill="#2F7E7A" transform="translate(327,79)"/>
<path d="M0,0 L1,0 L1,2 L2,2 L2,3 L3,3 L3,2 L4,2 L4,4 L3,4 L3,5 L2,5 L2,6 L1,6 L1,7 L0,7 L0,3 L-1,3 L-1,1 L0,1 Z " fill="#FBD056" transform="translate(134,54)"/>
<path d="M0,0 L6,0 L6,1 L8,1 L8,2 L9,2 L9,3 L4,3 L4,2 L2,2 L2,1 L0,1 Z " fill="#F8D67C" transform="translate(117,3)"/>
<path d="M0,0 L3,0 L3,3 L1,3 L1,4 L2,4 L2,9 L1,9 L1,5 L0,5 Z " fill="#A9C9C8" transform="translate(141,75)"/>
<path d="M0,0 L2,0 L2,1 L1,1 L1,3 L3,3 L3,7 L2,7 L2,6 L1,6 L1,5 L0,5 L0,4 L-1,4 L-1,1 L0,1 Z " fill="#488988" transform="translate(328,70)"/>
<path d="M0,0 L4,0 L4,3 L-2,3 L-2,1 L0,1 Z " fill="#288182" transform="translate(271,71)"/>
<path d="M0,0 L2,0 L2,1 L1,1 L1,3 L0,3 L0,4 L-1,4 L-1,5 L-5,5 L-5,4 L-4,4 L-4,3 L-3,3 L-3,2 L-1,2 L-1,1 L0,1 Z " fill="#D3E9E7" transform="translate(13,43)"/>
<path d="M0,0 L2,0 L2,2 L3,2 L3,3 L2,3 L2,6 L0,6 L0,4 L-1,4 L-1,2 L0,2 Z " fill="#27807A" transform="translate(311,72)"/>
<path d="M0,0 L3,0 L3,1 L4,1 L4,2 L6,2 L6,3 L0,3 L0,2 L-1,2 L-1,1 L0,1 Z " fill="#77A8A4" transform="translate(174,91)"/>
<path d="M0,0 L2,0 L2,1 L3,1 L3,2 L2,2 L2,5 L0,5 L0,4 L-1,4 L-1,3 L-2,3 L-2,2 L0,2 Z " fill="#488C8B" transform="translate(347,87)"/>
<path d="M0,0 L1,0 L1,1 L2,1 L2,0 L3,0 L3,2 L2,2 L2,4 L1,4 L1,6 L0,6 L0,5 L-1,5 L-1,2 L0,2 Z " fill="#6B9F9B" transform="translate(118,86)"/>
<path d="M0,0 L1,0 L1,1 L2,1 L2,2 L3,2 L3,3 L5,3 L5,5 L2,5 L2,6 L1,6 L1,2 L0,2 Z " fill="#6B9F9C" transform="translate(163,71)"/>
<path d="M0,0 L3,0 L3,1 L4,1 L4,5 L3,5 L3,3 L2,3 L2,2 L-3,2 L-3,1 L0,1 Z " fill="#99BCBB" transform="translate(156,73)"/>
<path d="M0,0 L1,0 L1,1 L2,1 L2,2 L3,2 L3,4 L4,4 L4,6 L2,6 L2,5 L1,5 L1,4 L0,4 Z " fill="#FADB8E" transform="translate(135,13)"/>
<path d="M0,0 L2,0 L2,1 L4,1 L4,2 L2,2 L2,3 L0,3 L0,5 L-2,5 L-2,3 L-1,3 L-1,2 L0,2 Z " fill="#87B1AC" transform="translate(326,85)"/>
<path d="M0,0 L2,0 L2,1 L3,1 L3,7 L2,7 L2,5 L1,5 L1,2 L0,2 Z " fill="#79A7A3" transform="translate(296,83)"/>
<path d="M0,0 L2,0 L2,2 L4,2 L4,3 L5,3 L5,4 L4,4 L4,5 L5,5 L5,7 L4,7 L4,6 L3,6 L3,4 L2,4 L2,3 L1,3 L1,1 L0,1 Z " fill="#D4E9E8" transform="translate(3,79)"/>
<path d="M0,0 L1,0 L1,4 L2,4 L2,6 L0,6 L0,5 L-1,5 L-1,6 L-2,6 L-2,4 L-1,4 L-1,2 L0,2 Z " fill="#6FA39F" transform="translate(289,75)"/>
<path d="M0,0 L3,0 L3,3 L2,3 L2,4 L1,4 L1,6 L0,6 Z " fill="#629999" transform="translate(138,79)"/>
<path d="M0,0 L3,0 L3,5 L1,5 L1,3 L0,3 Z " fill="#D8EDEA" transform="translate(113,76)"/>
<path d="M0,0 L1,0 L1,2 L2,2 L2,3 L1,3 L1,6 L0,6 L0,7 L-1,7 L-1,1 L0,1 Z " fill="#7AACAA" transform="translate(326,72)"/>
<path d="M0,0 L5,0 L5,1 L3,1 L3,3 L1,3 L1,4 L0,4 L0,2 L-1,2 L-1,1 L0,1 Z " fill="#4D8D88" transform="translate(238,70)"/>
<path d="M0,0 L2,0 L2,1 L5,1 L5,5 L4,5 L4,4 L3,4 L3,3 L1,3 L1,1 L0,1 Z " fill="#F5C113" transform="translate(82,59)"/>
<path d="M0,0 L5,0 L5,3 L4,3 L4,4 L3,4 L3,2 L0,2 Z " fill="#6D9F9C" transform="translate(318,55)"/>
<path d="M0,0 L6,0 L6,1 L4,1 L4,2 L2,2 L2,3 L0,3 Z " fill="#D8EBEB" transform="translate(105,90)"/>
<path d="M0,0 L3,0 L3,2 L2,2 L2,8 L1,8 L1,2 L0,2 Z " fill="#8FBAB7" transform="translate(173,76)"/>
<path d="M0,0 L2,0 L2,2 L3,2 L3,5 L1,5 L1,4 L0,4 Z " fill="#6EA09E" transform="translate(126,72)"/>
<path d="M0,0 L3,0 L3,3 L1,3 L1,5 L0,5 Z " fill="#6DA6A5" transform="translate(342,86)"/>
<path d="M0,0 L1,0 L1,3 L2,3 L2,5 L1,5 L1,7 L0,7 L0,4 L-1,4 L-1,2 L0,2 Z " fill="#6A9E9D" transform="translate(298,70)"/>
<path d="M0,0 L4,0 L4,2 L2,2 L2,3 L0,3 Z " fill="#7EACAA" transform="translate(181,90)"/>
<path d="M0,0 L1,0 L1,3 L2,3 L2,4 L1,4 L1,5 L0,5 L0,6 L-1,6 L-1,2 L0,2 Z " fill="#4C8D8B" transform="translate(126,81)"/>
<path d="M0,0 L3,0 L3,3 L1,3 L1,2 L-2,2 L-2,1 L0,1 Z " fill="#74A49C" transform="translate(332,82)"/>
<path d="M0,0 L3,0 L3,2 L1,2 L1,4 L0,4 L0,3 L-1,3 L-1,1 L0,1 Z " fill="#3A8283" transform="translate(145,74)"/>
<path d="M0,0 L3,0 L3,3 L2,3 L2,4 L1,4 L1,2 L0,2 Z " fill="#639D99" transform="translate(279,83)"/>
<path d="M0,0 L1,0 L1,1 L2,1 L2,3 L1,3 L1,5 L0,5 L0,4 L-1,4 L-1,2 L0,2 Z " fill="#4F938B" transform="translate(364,73)"/>
<path d="M0,0 L2,0 L2,1 L3,1 L3,3 L2,3 L2,5 L1,5 L1,2 L0,2 Z " fill="#75A29F" transform="translate(229,71)"/>
<path d="M0,0 L2,0 L2,1 L3,1 L3,3 L2,3 L2,4 L1,4 L1,2 L0,2 Z " fill="#6CA29F" transform="translate(306,86)"/>
<path d="M0,0 L2,0 L2,1 L3,1 L3,2 L2,2 L2,4 L1,4 L1,2 L0,2 Z " fill="#82B1AC" transform="translate(281,87)"/>
<path d="M0,0 L2,0 L2,1 L3,1 L3,2 L2,2 L2,4 L1,4 L1,2 L0,2 Z " fill="#6F9E9D" transform="translate(126,87)"/>
<path d="M0,0 L2,0 L2,1 L3,1 L3,2 L2,2 L2,3 L0,3 Z " fill="#1F847D" transform="translate(331,79)"/>
<path d="M0,0 L1,0 L1,1 L3,1 L3,2 L1,2 L1,4 L0,4 L0,2 L-1,2 L-1,1 L0,1 Z " fill="#71A3A0" transform="translate(265,75)"/>
<path d="M0,0 L2,0 L2,1 L3,1 L3,2 L2,2 L2,3 L1,3 L1,2 L0,2 Z " fill="#528F89" transform="translate(361,71)"/>
</svg>
